G04*
G04 #@! TF.GenerationSoftware,Altium Limited,Altium Designer,20.2.4 (192)*
G04*
G04 Layer_Physical_Order=2*
G04 Layer_Color=16711680*
%FSLAX44Y44*%
%MOMM*%
G71*
G04*
G04 #@! TF.SameCoordinates,CA4B6327-8C8C-4F40-9CFE-90DE2028BA09*
G04*
G04*
G04 #@! TF.FilePolarity,Positive*
G04*
G01*
G75*
%ADD13C,0.3000*%
%ADD61C,1.9000*%
%ADD62R,1.9000X1.9000*%
%ADD68C,0.4000*%
%ADD69C,0.6000*%
%ADD70C,3.2000*%
%ADD71C,4.0000*%
%ADD72O,1.6000X2.0000*%
%ADD73R,1.6000X2.0000*%
%ADD74O,2.0000X1.6000*%
%ADD75R,2.0000X1.6000*%
%ADD76C,7.4000*%
%ADD77C,1.7000*%
%ADD78R,1.7000X1.7000*%
G04:AMPARAMS|DCode=79|XSize=2mm|YSize=1.2mm|CornerRadius=0.36mm|HoleSize=0mm|Usage=FLASHONLY|Rotation=0.000|XOffset=0mm|YOffset=0mm|HoleType=Round|Shape=RoundedRectangle|*
%AMROUNDEDRECTD79*
21,1,2.0000,0.4800,0,0,0.0*
21,1,1.2800,1.2000,0,0,0.0*
1,1,0.7200,0.6400,-0.2400*
1,1,0.7200,-0.6400,-0.2400*
1,1,0.7200,-0.6400,0.2400*
1,1,0.7200,0.6400,0.2400*
%
%ADD79ROUNDEDRECTD79*%
%ADD80C,0.6000*%
G36*
X86000Y493000D02*
Y483121D01*
X85237D01*
X83871Y482849D01*
X82713Y482075D01*
X81981Y481343D01*
X79080D01*
Y488274D01*
X58080D01*
Y469343D01*
X56714D01*
X52711Y473346D01*
X53410Y475033D01*
X53771Y477774D01*
X53410Y480515D01*
X52352Y483069D01*
X50669Y485263D01*
X48475Y486946D01*
X45921Y488004D01*
X43180Y488365D01*
X40439Y488004D01*
X37885Y486946D01*
X35691Y485263D01*
X34008Y483069D01*
X32950Y480515D01*
X32589Y477774D01*
X32950Y475033D01*
X34008Y472479D01*
X35691Y470285D01*
X37885Y468602D01*
X40439Y467544D01*
X43180Y467183D01*
X45921Y467544D01*
X47687Y468276D01*
X49272Y466691D01*
X52712Y463251D01*
X53870Y462477D01*
X55236Y462205D01*
X78530D01*
X79895Y462477D01*
X81053Y463251D01*
X86803Y469000D01*
X187099D01*
Y454000D01*
X186685Y453000D01*
X172099D01*
Y462000D01*
X86099D01*
Y443000D01*
X86000D01*
Y442000D01*
X58601D01*
X52695Y447906D01*
X53410Y449633D01*
X53771Y452374D01*
X53410Y455115D01*
X52352Y457669D01*
X50669Y459863D01*
X48475Y461546D01*
X45921Y462604D01*
X43180Y462965D01*
X40439Y462604D01*
X37885Y461546D01*
X35691Y459863D01*
X34008Y457669D01*
X32950Y455115D01*
X32589Y452374D01*
X32950Y449633D01*
X34008Y447079D01*
X35691Y444885D01*
X37796Y443270D01*
X37801Y443132D01*
X37067Y442000D01*
X23893D01*
X23159Y443132D01*
X23163Y443270D01*
X25269Y444885D01*
X26952Y447079D01*
X28010Y449633D01*
X28371Y452374D01*
X28010Y455115D01*
X26952Y457669D01*
X25269Y459863D01*
X23075Y461546D01*
X20521Y462604D01*
X17780Y462965D01*
X15039Y462604D01*
X12485Y461546D01*
X10291Y459863D01*
X8608Y457669D01*
X7550Y455115D01*
X7189Y452374D01*
X7550Y449633D01*
X8608Y447079D01*
X10291Y444885D01*
X12397Y443270D01*
X12401Y443132D01*
X11667Y442000D01*
X8000D01*
X8000Y419516D01*
X7846Y419315D01*
X6788Y416761D01*
X6427Y414020D01*
X6788Y411279D01*
X7846Y408725D01*
X8000Y408524D01*
X8000Y394116D01*
X7846Y393915D01*
X6788Y391361D01*
X6427Y388620D01*
X6788Y385879D01*
X7846Y383325D01*
X8000Y383124D01*
X8000Y334000D01*
X16748Y334000D01*
X18509Y333270D01*
X21250Y332909D01*
X23991Y333270D01*
X25752Y334000D01*
X36150Y334000D01*
Y333000D01*
X57150D01*
Y334000D01*
X61578D01*
X61964Y332730D01*
X60911Y332027D01*
X59806Y330373D01*
X59418Y328422D01*
X59806Y326471D01*
X60911Y324817D01*
X60947Y324793D01*
Y291935D01*
X60290Y290951D01*
X59902Y289000D01*
X60290Y287049D01*
X61395Y285395D01*
X63049Y284290D01*
X65000Y283902D01*
X66951Y284290D01*
X68605Y285395D01*
X69710Y287049D01*
X70098Y289000D01*
X69710Y290951D01*
X68605Y292605D01*
X68085Y292952D01*
Y324793D01*
X68121Y324817D01*
X69226Y326471D01*
X69614Y328422D01*
X69226Y330373D01*
X68121Y332027D01*
X67069Y332730D01*
X67454Y334000D01*
X103000Y334000D01*
X103000Y227090D01*
X63348D01*
X62403Y227722D01*
X60452Y228110D01*
X58501Y227722D01*
X56847Y226617D01*
X55888Y225181D01*
X20305D01*
X20225Y225585D01*
X18987Y227437D01*
X17135Y228675D01*
X14950Y229110D01*
X2537D01*
X2000Y271000D01*
X2000Y493000D01*
X86000Y493000D01*
D02*
G37*
G36*
X588000Y390533D02*
X586730Y390148D01*
X586273Y390831D01*
X558851Y418253D01*
X559269Y419632D01*
X559735Y419724D01*
X561389Y420829D01*
X562494Y422483D01*
X562597Y423000D01*
X588000Y423000D01*
Y390533D01*
D02*
G37*
G36*
X682000Y44250D02*
X677750Y40000D01*
X675500Y42250D01*
X635250D01*
Y48741D01*
X663284Y76775D01*
X664168Y78098D01*
X664478Y79658D01*
X664168Y81219D01*
X663284Y82542D01*
X661961Y83427D01*
X660400Y83737D01*
X658839Y83427D01*
X657516Y82542D01*
X636423Y61450D01*
X635250Y61936D01*
Y117020D01*
X635773Y117543D01*
X636547Y118701D01*
X636819Y120067D01*
Y183031D01*
X639673Y185886D01*
X640447Y187044D01*
X640719Y188409D01*
Y307696D01*
X640447Y309062D01*
X639673Y310219D01*
X635250Y314643D01*
Y416281D01*
X636370Y416879D01*
X638353Y415555D01*
X639559Y414959D01*
Y381222D01*
X639831Y379856D01*
X640605Y378699D01*
X648795Y370508D01*
X648515Y370143D01*
X647507Y367710D01*
X647164Y365100D01*
X647507Y362490D01*
X648515Y360057D01*
X650118Y357968D01*
X652207Y356365D01*
X654640Y355357D01*
X657250Y355014D01*
X661250D01*
X663860Y355357D01*
X666293Y356365D01*
X668382Y357968D01*
X669985Y360057D01*
X670993Y362490D01*
X671336Y365100D01*
X670993Y367710D01*
X669985Y370143D01*
X668382Y372232D01*
X666293Y373835D01*
X663860Y374843D01*
X661250Y375186D01*
X657250D01*
X654640Y374843D01*
X654579Y374818D01*
X650070Y379327D01*
X650556Y380500D01*
X671250D01*
Y400500D01*
X647250D01*
X646697Y401541D01*
Y416497D01*
X646425Y417862D01*
X645651Y419020D01*
X644781Y419891D01*
X644771Y419897D01*
X644764Y419907D01*
X644525Y420146D01*
X644445Y420226D01*
X643530Y420838D01*
X643529Y420838D01*
X643288Y420999D01*
X643253Y421006D01*
X642477Y421479D01*
X638660Y423818D01*
X635250Y426730D01*
Y495000D01*
X349534D01*
X349090Y495297D01*
X347724Y495569D01*
X286000D01*
Y526000D01*
X287000Y527000D01*
X635250D01*
Y528750D01*
X682000D01*
Y44250D01*
D02*
G37*
G36*
X103000Y191524D02*
X102917Y191400D01*
X102645Y190034D01*
Y180879D01*
X102609Y180855D01*
X101504Y179201D01*
X101116Y177250D01*
X101504Y175299D01*
X102609Y173645D01*
X104263Y172540D01*
X106214Y172152D01*
X108165Y172540D01*
X109819Y173645D01*
X110924Y175299D01*
X111312Y177250D01*
X110924Y179201D01*
X109819Y180855D01*
X109783Y180879D01*
Y188556D01*
X112227Y191000D01*
X147811D01*
X148410Y189880D01*
X148290Y189701D01*
X147902Y187750D01*
Y182000D01*
X148290Y180049D01*
X149395Y178395D01*
X151049Y177290D01*
X153000Y176902D01*
X154951Y177290D01*
X156605Y178395D01*
X157710Y180049D01*
X158098Y182000D01*
Y185638D01*
X163460Y191000D01*
X243197D01*
X243582Y189730D01*
X243395Y189605D01*
X242290Y187951D01*
X241902Y186000D01*
X242290Y184049D01*
X242922Y183104D01*
Y127785D01*
X231679Y116543D01*
X206448Y116780D01*
Y118045D01*
X206648Y119050D01*
Y127050D01*
X206260Y129001D01*
X205155Y130655D01*
X203501Y131760D01*
X201550Y132148D01*
X199599Y131760D01*
X197945Y130655D01*
X196840Y129001D01*
X196452Y127050D01*
Y119855D01*
X196252Y118850D01*
Y117778D01*
X195350Y116884D01*
X183000Y117000D01*
Y87000D01*
X201000Y69000D01*
X215701Y69136D01*
X216105Y68531D01*
X217759Y67426D01*
X219710Y67038D01*
X221661Y67426D01*
X223315Y68531D01*
X223576Y68922D01*
X324284D01*
X324284Y68922D01*
X325845Y69232D01*
X327168Y70116D01*
X327218Y70167D01*
X340848Y70293D01*
X341750Y69399D01*
Y27274D01*
X341610Y27166D01*
X340007Y25077D01*
X338999Y22645D01*
X338656Y20034D01*
Y16034D01*
X338999Y13424D01*
X340007Y10991D01*
X341328Y9270D01*
X340862Y8094D01*
X340776Y8000D01*
X307942Y8000D01*
Y30034D01*
X287942D01*
Y8000D01*
X245049Y8000D01*
X172882Y88472D01*
X172837Y88506D01*
X172806Y88553D01*
X172520Y88744D01*
X172245Y88950D01*
X172191Y88964D01*
X172144Y88995D01*
X171807Y89062D01*
X171475Y89147D01*
X171419Y89139D01*
X171364Y89150D01*
X171027Y89083D01*
X170687Y89034D01*
X170639Y89006D01*
X170583Y88995D01*
X169978Y88744D01*
X169040Y88621D01*
X159853Y98652D01*
Y100366D01*
X160033Y101734D01*
X160028Y101813D01*
X160047Y101889D01*
X160002Y102207D01*
X159981Y102528D01*
X159946Y102599D01*
X159935Y102677D01*
X159771Y102953D01*
X159629Y103242D01*
X159570Y103294D01*
X159529Y103362D01*
X152518Y111180D01*
X152473Y111214D01*
X152442Y111260D01*
X152156Y111451D01*
X151882Y111657D01*
X151827Y111671D01*
X151780Y111702D01*
X151444Y111769D01*
X151111Y111854D01*
X151055Y111847D01*
X151000Y111858D01*
X147758D01*
X144880Y115000D01*
X68146Y115000D01*
X67039Y207024D01*
X66959Y207402D01*
X66884Y207780D01*
X66877Y207791D01*
X66874Y207803D01*
X66656Y208121D01*
X66442Y208442D01*
X66431Y208449D01*
X66424Y208459D01*
X66101Y208670D01*
X65780Y208884D01*
X65768Y208886D01*
X65758Y208893D01*
X65379Y208964D01*
X65000Y209039D01*
X43000D01*
X42220Y208884D01*
X41558Y208442D01*
X41116Y207780D01*
X40961Y207000D01*
X40961Y149000D01*
X40969Y148959D01*
X40962Y148919D01*
X41046Y148570D01*
X41116Y148220D01*
X41139Y148185D01*
X41149Y148145D01*
X41359Y147856D01*
X41421Y147762D01*
X41055Y146973D01*
X41031Y146945D01*
X40718Y146649D01*
X37313Y147682D01*
X33000Y148106D01*
X28687Y147682D01*
X25682Y146770D01*
X20526Y151926D01*
X20660Y152600D01*
Y157400D01*
X20225Y159585D01*
X18987Y161437D01*
X17135Y162675D01*
X14950Y163110D01*
X12628D01*
Y212890D01*
X14950D01*
X17135Y213325D01*
X18987Y214563D01*
X20225Y216415D01*
X20346Y217025D01*
X58543D01*
X58543Y217025D01*
X60104Y217335D01*
X61190Y218061D01*
X62403Y218302D01*
X63348Y218934D01*
X103000D01*
Y191524D01*
D02*
G37*
G36*
X580181Y386830D02*
Y353379D01*
X580145Y353355D01*
X579040Y351701D01*
X578652Y349750D01*
X579040Y347799D01*
X580145Y346145D01*
X581799Y345040D01*
X583750Y344652D01*
X585701Y345040D01*
X586730Y345728D01*
X588000Y345049D01*
Y318000D01*
X586750D01*
Y295000D01*
X588000D01*
Y266805D01*
X587046Y264502D01*
X586651Y261500D01*
X587046Y258498D01*
X588000Y256195D01*
X588000Y223731D01*
X576626Y212357D01*
X575295D01*
X574893Y212665D01*
X572461Y213673D01*
X569850Y214016D01*
X567239Y213673D01*
X564807Y212665D01*
X562718Y211062D01*
X561115Y208973D01*
X560107Y206541D01*
X559764Y203930D01*
Y199930D01*
X560107Y197320D01*
X561115Y194887D01*
X562718Y192798D01*
X564807Y191195D01*
X567239Y190187D01*
X569850Y189844D01*
X572461Y190187D01*
X574893Y191195D01*
X576982Y192798D01*
X578585Y194887D01*
X579593Y197320D01*
X579936Y199930D01*
Y203930D01*
X579710Y205651D01*
X580627Y206265D01*
X586521Y212158D01*
X587777Y211693D01*
X587920Y210805D01*
X586515Y208973D01*
X585507Y206541D01*
X585164Y203930D01*
Y199930D01*
X585507Y197320D01*
X586515Y194887D01*
X588000Y192952D01*
Y162771D01*
X568028Y142799D01*
X565087D01*
X563721Y142527D01*
X562563Y141753D01*
X555827Y135017D01*
X555053Y133859D01*
X554781Y132493D01*
Y132238D01*
X553511Y131985D01*
X553185Y132773D01*
X551582Y134862D01*
X549493Y136465D01*
X547061Y137473D01*
X544450Y137816D01*
X541839Y137473D01*
X539407Y136465D01*
X537318Y134862D01*
X535715Y132773D01*
X534707Y130340D01*
X534364Y127730D01*
Y123730D01*
X534707Y121119D01*
X535715Y118687D01*
X537318Y116598D01*
X539407Y114995D01*
X541839Y113987D01*
X544450Y113644D01*
X547061Y113987D01*
X549493Y114995D01*
X551582Y116598D01*
X553185Y118687D01*
X553511Y119475D01*
X554781Y119222D01*
Y104460D01*
X509321Y59000D01*
X508890Y58569D01*
X470629D01*
X470605Y58605D01*
X468951Y59710D01*
X467000Y60098D01*
X465049Y59710D01*
X463395Y58605D01*
X462991Y58000D01*
X456980D01*
X455750Y59230D01*
Y96506D01*
X463604D01*
X464549Y95874D01*
X466500Y95486D01*
X468451Y95874D01*
X470105Y96979D01*
X471210Y98633D01*
X471598Y100584D01*
X471582Y100663D01*
X472018Y101314D01*
X472328Y102875D01*
X472328Y102875D01*
Y114595D01*
X473293Y114995D01*
X475382Y116598D01*
X476985Y118687D01*
X477993Y121119D01*
X478336Y123730D01*
Y127730D01*
X477993Y130340D01*
X476985Y132773D01*
X475382Y134862D01*
X473293Y136465D01*
X470860Y137473D01*
X468250Y137816D01*
X465639Y137473D01*
X463207Y136465D01*
X461118Y134862D01*
X459515Y132773D01*
X458507Y130340D01*
X458164Y127730D01*
Y123730D01*
X458507Y121119D01*
X459515Y118687D01*
X461118Y116598D01*
X463207Y114995D01*
X464172Y114595D01*
Y105042D01*
X463604Y104662D01*
X455750D01*
Y114439D01*
X449333Y114499D01*
X448907Y115773D01*
X449982Y116598D01*
X451585Y118687D01*
X452593Y121119D01*
X452936Y123730D01*
Y127730D01*
X452593Y130340D01*
X451585Y132773D01*
X449982Y134862D01*
X447893Y136465D01*
X445461Y137473D01*
X442850Y137816D01*
X440239Y137473D01*
X437807Y136465D01*
X435718Y134862D01*
X434115Y132773D01*
X433107Y130340D01*
X432764Y127730D01*
Y123730D01*
X433107Y121119D01*
X434115Y118687D01*
X435718Y116598D01*
X436643Y115888D01*
X436206Y114622D01*
X424240Y114735D01*
X423814Y116009D01*
X424582Y116598D01*
X426185Y118687D01*
X427193Y121119D01*
X427536Y123730D01*
Y127730D01*
X427193Y130340D01*
X426185Y132773D01*
X424582Y134862D01*
X422493Y136465D01*
X420061Y137473D01*
X417450Y137816D01*
X414840Y137473D01*
X412407Y136465D01*
X410318Y134862D01*
X408715Y132773D01*
X407707Y130340D01*
X407364Y127730D01*
Y123730D01*
X407707Y121119D01*
X408715Y118687D01*
X410318Y116598D01*
X410928Y116130D01*
X410491Y114864D01*
X399147Y114970D01*
X398722Y116244D01*
X399182Y116598D01*
X400785Y118687D01*
X401793Y121119D01*
X402136Y123730D01*
Y127730D01*
X401793Y130340D01*
X400785Y132773D01*
X399182Y134862D01*
X397093Y136465D01*
X394660Y137473D01*
X392050Y137816D01*
X389440Y137473D01*
X387007Y136465D01*
X384918Y134862D01*
X383315Y132773D01*
X382307Y130340D01*
X381964Y127730D01*
Y123730D01*
X382307Y121119D01*
X383315Y118687D01*
X384918Y116598D01*
X385300Y116305D01*
X384886Y115104D01*
X373942Y115207D01*
X373539Y116412D01*
X373782Y116598D01*
X375385Y118687D01*
X376393Y121119D01*
X376736Y123730D01*
Y127730D01*
X376393Y130340D01*
X375385Y132773D01*
X373782Y134862D01*
X371693Y136465D01*
X369260Y137473D01*
X366650Y137816D01*
X364039Y137473D01*
X361607Y136465D01*
X359518Y134862D01*
X357915Y132773D01*
X356907Y130340D01*
X356564Y127730D01*
Y123730D01*
X356907Y121119D01*
X357915Y118687D01*
X359507Y116613D01*
X359446Y116143D01*
X359171Y115346D01*
X348768Y115443D01*
X348672Y115731D01*
X348473Y116716D01*
X349985Y118687D01*
X350993Y121119D01*
X351336Y123730D01*
Y127730D01*
X350993Y130340D01*
X349985Y132773D01*
X348382Y134862D01*
X346293Y136465D01*
X343861Y137473D01*
X341250Y137816D01*
X338639Y137473D01*
X336207Y136465D01*
X334118Y134862D01*
X332515Y132773D01*
X331507Y130340D01*
X331164Y127730D01*
Y123730D01*
X331507Y121119D01*
X332515Y118687D01*
X333922Y116853D01*
X333523Y115587D01*
X323736Y115679D01*
X323255Y116953D01*
X324585Y118687D01*
X325593Y121119D01*
X325936Y123730D01*
Y127730D01*
X325593Y130340D01*
X324585Y132773D01*
X322982Y134862D01*
X320893Y136465D01*
X318461Y137473D01*
X315850Y137816D01*
X313239Y137473D01*
X310807Y136465D01*
X308718Y134862D01*
X307115Y132773D01*
X306107Y130340D01*
X305764Y127730D01*
Y123730D01*
X306107Y121119D01*
X307115Y118687D01*
X308338Y117093D01*
X307707Y115829D01*
X298658Y115914D01*
X298036Y117190D01*
X299185Y118687D01*
X300193Y121119D01*
X300536Y123730D01*
Y127730D01*
X300193Y130340D01*
X299185Y132773D01*
X297582Y134862D01*
X295493Y136465D01*
X294019Y137076D01*
Y149015D01*
X294710Y150049D01*
X295098Y152000D01*
X294710Y153951D01*
X293605Y155605D01*
X291951Y156710D01*
X290000Y157098D01*
X288049Y156710D01*
X286395Y155605D01*
X285290Y153951D01*
X284902Y152000D01*
X285290Y150049D01*
X286395Y148395D01*
X286881Y148070D01*
Y137076D01*
X285407Y136465D01*
X283318Y134862D01*
X281715Y132773D01*
X280707Y130340D01*
X280364Y127730D01*
Y123730D01*
X280707Y121119D01*
X281715Y118687D01*
X282754Y117333D01*
X282123Y116069D01*
X244748Y116420D01*
X244268Y117596D01*
X249884Y123212D01*
X249884Y123212D01*
X250768Y124535D01*
X251078Y126096D01*
X251078Y126096D01*
Y183104D01*
X251710Y184049D01*
X252066Y185840D01*
X255106Y188879D01*
X255106Y188879D01*
X255990Y190203D01*
X256149Y191000D01*
X285878D01*
X287840Y190187D01*
X290450Y189844D01*
X293060Y190187D01*
X295022Y191000D01*
X311278D01*
X313239Y190187D01*
X315850Y189844D01*
X318461Y190187D01*
X320422Y191000D01*
X336678D01*
X338639Y190187D01*
X341250Y189844D01*
X343861Y190187D01*
X345822Y191000D01*
X362078D01*
X364039Y190187D01*
X366650Y189844D01*
X369260Y190187D01*
X371222Y191000D01*
X387478D01*
X389440Y190187D01*
X392050Y189844D01*
X394660Y190187D01*
X396622Y191000D01*
X412878D01*
X414840Y190187D01*
X417450Y189844D01*
X420061Y190187D01*
X422022Y191000D01*
X438278D01*
X440239Y190187D01*
X442850Y189844D01*
X445461Y190187D01*
X447422Y191000D01*
X463678D01*
X465639Y190187D01*
X468250Y189844D01*
X470860Y190187D01*
X472822Y191000D01*
X481000D01*
X481000Y272000D01*
X549000D01*
Y320982D01*
X556586Y328568D01*
X557701Y328790D01*
X559355Y329895D01*
X560460Y331549D01*
X560848Y333500D01*
X560460Y335451D01*
X559355Y337105D01*
X557701Y338210D01*
X555750Y338598D01*
X553799Y338210D01*
X552145Y337105D01*
X551040Y335451D01*
X550880Y334644D01*
X550270Y334246D01*
X549000Y334919D01*
Y416352D01*
X550173Y416838D01*
X580181Y386830D01*
D02*
G37*
G36*
X478000Y193039D02*
X472822D01*
X472042Y192884D01*
X472042Y192884D01*
X470328Y192174D01*
X469006Y192000D01*
X467494D01*
X466172Y192174D01*
X464458Y192884D01*
X463678Y193039D01*
X458000D01*
Y272000D01*
X478000D01*
Y193039D01*
D02*
G37*
G36*
X66108Y114902D02*
X65215Y113999D01*
X56000Y114001D01*
X56000Y137000D01*
X43000Y149000D01*
X43000Y207000D01*
X65000D01*
X66108Y114902D01*
D02*
G37*
G36*
X466394Y34412D02*
X462232Y30250D01*
X429020Y30250D01*
Y40643D01*
X429960Y42049D01*
X430348Y44000D01*
X429960Y45951D01*
X428855Y47605D01*
X427201Y48710D01*
X425250Y49098D01*
X423299Y48710D01*
X422354Y48078D01*
X402791D01*
X401783Y47878D01*
X401539Y48078D01*
X401384Y48859D01*
X400942Y49520D01*
X400280Y49962D01*
X399500Y50118D01*
X381800D01*
X381020Y49962D01*
X380358Y49520D01*
X379916Y48859D01*
X379761Y48078D01*
Y41539D01*
X368573D01*
X367679Y42441D01*
X368073Y87000D01*
X351539D01*
Y97000D01*
X351384Y97780D01*
X350942Y98442D01*
X350280Y98884D01*
X349500Y99039D01*
X313599D01*
X313124Y99236D01*
X310122Y99631D01*
X307120Y99236D01*
X306645Y99039D01*
X256622D01*
Y99532D01*
X237036D01*
X237000Y99539D01*
X236964Y99532D01*
X233622D01*
Y92110D01*
X227257D01*
X227257Y92110D01*
X225697Y91800D01*
X224373Y90916D01*
X224373Y90916D01*
X220457Y87000D01*
X203493D01*
X203000Y87098D01*
X202507Y87000D01*
X185884D01*
X185039Y87845D01*
Y112000D01*
X194131D01*
X194617Y110827D01*
X189695Y105905D01*
X188590Y104251D01*
X188202Y102300D01*
Y98500D01*
X188590Y96549D01*
X189695Y94895D01*
X191349Y93790D01*
X193300Y93402D01*
X195251Y93790D01*
X196905Y94895D01*
X198010Y96549D01*
X198398Y98500D01*
Y100188D01*
X204955Y106745D01*
X206060Y108399D01*
X206448Y110350D01*
Y112000D01*
X225403D01*
X225504Y111918D01*
X226069Y110730D01*
X225594Y110019D01*
X225284Y108458D01*
X225594Y106897D01*
X226478Y105574D01*
X227801Y104690D01*
X229362Y104380D01*
X230242Y104555D01*
X231140Y104376D01*
X233091Y104764D01*
X234745Y105869D01*
X235850Y107523D01*
X236238Y109474D01*
X236223Y109551D01*
X238672Y112000D01*
X388806Y112000D01*
X466394Y34412D01*
D02*
G37*
G36*
X158011Y102000D02*
X157814Y100500D01*
Y96500D01*
X158157Y93890D01*
X159165Y91457D01*
X160768Y89368D01*
X162857Y87765D01*
X165289Y86757D01*
X167900Y86414D01*
X170511Y86757D01*
X171364Y87111D01*
X245000Y5000D01*
X386750D01*
X393000Y39000D01*
X397612D01*
X399049Y38040D01*
X401000Y37652D01*
X402951Y38040D01*
X404388Y39000D01*
X415000D01*
Y21130D01*
X414856Y20034D01*
Y16034D01*
X415000Y14938D01*
Y2000D01*
X192590D01*
X191879Y3270D01*
X194557Y7640D01*
X196906Y13311D01*
X198339Y19280D01*
X198821Y25400D01*
X198339Y31520D01*
X196906Y37489D01*
X194557Y43160D01*
X191349Y48394D01*
X187362Y53062D01*
X182694Y57049D01*
X177460Y60257D01*
X171789Y62606D01*
X165820Y64039D01*
X159700Y64521D01*
X153580Y64039D01*
X147611Y62606D01*
X141940Y60257D01*
X136706Y57049D01*
X132038Y53062D01*
X128051Y48394D01*
X124843Y43160D01*
X122494Y37489D01*
X121061Y31520D01*
X120579Y25400D01*
X121061Y19280D01*
X122494Y13311D01*
X124843Y7640D01*
X127521Y3270D01*
X126810Y2000D01*
X3000D01*
Y109818D01*
X18039D01*
X20718Y107619D01*
X24540Y105576D01*
X28687Y104318D01*
X33000Y103894D01*
X37313Y104318D01*
X41460Y105576D01*
X45282Y107619D01*
X47961Y109818D01*
X151000D01*
X158011Y102000D01*
D02*
G37*
G36*
X237500Y97000D02*
X349500D01*
Y77000D01*
X364250D01*
Y40563D01*
X364250Y40500D01*
X364000Y40250D01*
X364750Y39500D01*
X365046Y39500D01*
X381800D01*
Y48078D01*
X399500D01*
Y46530D01*
X399439Y46518D01*
X398116Y45634D01*
X397232Y44311D01*
X396922Y42750D01*
X397009Y42309D01*
X395967Y41039D01*
X393000D01*
X392789Y40997D01*
X392573Y40994D01*
X392402Y40920D01*
X392220Y40884D01*
X392040Y40764D01*
X391842Y40679D01*
X391713Y40545D01*
X391558Y40442D01*
X391438Y40263D01*
X391288Y40108D01*
X391219Y39935D01*
X391116Y39780D01*
X391074Y39569D01*
X390994Y39369D01*
X389640Y32000D01*
X345750D01*
Y38250D01*
Y72250D01*
X341261D01*
X341225Y72257D01*
X340838Y72332D01*
X340834Y72331D01*
X340829Y72332D01*
X331975Y72250D01*
X330961D01*
X330475Y73423D01*
X340332Y83280D01*
X341447Y83502D01*
X343101Y84607D01*
X344206Y86261D01*
X344594Y88212D01*
X344206Y90163D01*
X343101Y91817D01*
X341447Y92922D01*
X339496Y93310D01*
X337545Y92922D01*
X335891Y91817D01*
X334786Y90163D01*
X334564Y89048D01*
X322595Y77078D01*
X235750D01*
Y83954D01*
X245122D01*
X246683Y84264D01*
X248006Y85148D01*
X248890Y86471D01*
X249200Y88032D01*
X248890Y89593D01*
X248006Y90916D01*
X246683Y91800D01*
X245122Y92110D01*
X235750D01*
Y96250D01*
X237000Y97500D01*
X237500Y97000D01*
D02*
G37*
%LPC*%
G36*
X17780Y488365D02*
X15039Y488004D01*
X12485Y486946D01*
X10291Y485263D01*
X8608Y483069D01*
X7550Y480515D01*
X7189Y477774D01*
X7550Y475033D01*
X8608Y472479D01*
X10291Y470285D01*
X12485Y468602D01*
X15039Y467544D01*
X17780Y467183D01*
X20521Y467544D01*
X23075Y468602D01*
X25269Y470285D01*
X26952Y472479D01*
X28010Y475033D01*
X28371Y477774D01*
X28010Y480515D01*
X26952Y483069D01*
X25269Y485263D01*
X23075Y486946D01*
X20521Y488004D01*
X17780Y488365D01*
D02*
G37*
G36*
X46650Y328691D02*
X43909Y328330D01*
X41355Y327272D01*
X39161Y325589D01*
X37478Y323395D01*
X36420Y320841D01*
X36059Y318100D01*
X36420Y315359D01*
X37478Y312805D01*
X39161Y310611D01*
X41355Y308928D01*
X43909Y307870D01*
X46650Y307509D01*
X49391Y307870D01*
X51945Y308928D01*
X54139Y310611D01*
X55822Y312805D01*
X56880Y315359D01*
X57241Y318100D01*
X56880Y320841D01*
X55822Y323395D01*
X54139Y325589D01*
X51945Y327272D01*
X49391Y328330D01*
X46650Y328691D01*
D02*
G37*
G36*
X21250D02*
X18509Y328330D01*
X15955Y327272D01*
X13761Y325589D01*
X12078Y323395D01*
X11020Y320841D01*
X10659Y318100D01*
X11020Y315359D01*
X12078Y312805D01*
X13761Y310611D01*
X15955Y308928D01*
X18509Y307870D01*
X21250Y307509D01*
X23991Y307870D01*
X26545Y308928D01*
X28739Y310611D01*
X30422Y312805D01*
X31480Y315359D01*
X31841Y318100D01*
X31480Y320841D01*
X30422Y323395D01*
X28739Y325589D01*
X26545Y327272D01*
X23991Y328330D01*
X21250Y328691D01*
D02*
G37*
G36*
X669384Y522032D02*
X649384D01*
Y498032D01*
X669384D01*
Y522032D01*
D02*
G37*
G36*
X633984Y522118D02*
X631373Y521775D01*
X628941Y520767D01*
X626852Y519164D01*
X625249Y517075D01*
X624241Y514642D01*
X623898Y512032D01*
Y508032D01*
X624241Y505421D01*
X625249Y502989D01*
X626852Y500900D01*
X628941Y499297D01*
X631373Y498289D01*
X633984Y497946D01*
X635250Y498112D01*
D01*
X636595Y498289D01*
X639027Y499297D01*
X641116Y500900D01*
X642719Y502989D01*
X643727Y505421D01*
X644070Y508032D01*
Y512032D01*
X643727Y514642D01*
X642719Y517075D01*
X641116Y519164D01*
X639027Y520767D01*
X636595Y521775D01*
X635250Y521952D01*
D01*
X633984Y522118D01*
D02*
G37*
G36*
X608584D02*
X605974Y521775D01*
X603541Y520767D01*
X601452Y519164D01*
X599849Y517075D01*
X598841Y514642D01*
X598498Y512032D01*
Y508032D01*
X598841Y505421D01*
X599849Y502989D01*
X601452Y500900D01*
X603541Y499297D01*
X605974Y498289D01*
X608584Y497946D01*
X611194Y498289D01*
X613627Y499297D01*
X615716Y500900D01*
X617319Y502989D01*
X618327Y505421D01*
X618670Y508032D01*
Y512032D01*
X618327Y514642D01*
X617319Y517075D01*
X615716Y519164D01*
X613627Y520767D01*
X611194Y521775D01*
X608584Y522118D01*
D02*
G37*
G36*
X583184D02*
X580574Y521775D01*
X578141Y520767D01*
X576052Y519164D01*
X574449Y517075D01*
X573441Y514642D01*
X573098Y512032D01*
Y508032D01*
X573441Y505421D01*
X574449Y502989D01*
X576052Y500900D01*
X578141Y499297D01*
X580574Y498289D01*
X583184Y497946D01*
X585794Y498289D01*
X588227Y499297D01*
X590316Y500900D01*
X591919Y502989D01*
X592927Y505421D01*
X593270Y508032D01*
Y512032D01*
X592927Y514642D01*
X591919Y517075D01*
X590316Y519164D01*
X588227Y520767D01*
X585794Y521775D01*
X583184Y522118D01*
D02*
G37*
G36*
X557784D02*
X555173Y521775D01*
X552741Y520767D01*
X550652Y519164D01*
X549049Y517075D01*
X548041Y514642D01*
X547698Y512032D01*
Y508032D01*
X548041Y505421D01*
X549049Y502989D01*
X550652Y500900D01*
X552741Y499297D01*
X555173Y498289D01*
X557784Y497946D01*
X560395Y498289D01*
X562827Y499297D01*
X564916Y500900D01*
X566519Y502989D01*
X567527Y505421D01*
X567870Y508032D01*
Y512032D01*
X567527Y514642D01*
X566519Y517075D01*
X564916Y519164D01*
X562827Y520767D01*
X560395Y521775D01*
X557784Y522118D01*
D02*
G37*
G36*
X532384D02*
X529773Y521775D01*
X527341Y520767D01*
X525252Y519164D01*
X523649Y517075D01*
X522641Y514642D01*
X522298Y512032D01*
Y508032D01*
X522641Y505421D01*
X523649Y502989D01*
X525252Y500900D01*
X527341Y499297D01*
X529773Y498289D01*
X532384Y497946D01*
X534995Y498289D01*
X537427Y499297D01*
X539516Y500900D01*
X541119Y502989D01*
X542127Y505421D01*
X542470Y508032D01*
Y512032D01*
X542127Y514642D01*
X541119Y517075D01*
X539516Y519164D01*
X537427Y520767D01*
X534995Y521775D01*
X532384Y522118D01*
D02*
G37*
G36*
X506984D02*
X504374Y521775D01*
X501941Y520767D01*
X499852Y519164D01*
X498249Y517075D01*
X497241Y514642D01*
X496898Y512032D01*
Y508032D01*
X497241Y505421D01*
X498249Y502989D01*
X499852Y500900D01*
X501941Y499297D01*
X504374Y498289D01*
X506984Y497946D01*
X509594Y498289D01*
X512027Y499297D01*
X514116Y500900D01*
X515719Y502989D01*
X516727Y505421D01*
X517070Y508032D01*
Y512032D01*
X516727Y514642D01*
X515719Y517075D01*
X514116Y519164D01*
X512027Y520767D01*
X509594Y521775D01*
X506984Y522118D01*
D02*
G37*
G36*
X481584D02*
X478974Y521775D01*
X476541Y520767D01*
X474452Y519164D01*
X472849Y517075D01*
X471841Y514642D01*
X471498Y512032D01*
Y508032D01*
X471841Y505421D01*
X472849Y502989D01*
X474452Y500900D01*
X476541Y499297D01*
X478974Y498289D01*
X481584Y497946D01*
X484194Y498289D01*
X486627Y499297D01*
X488716Y500900D01*
X490319Y502989D01*
X491327Y505421D01*
X491670Y508032D01*
Y512032D01*
X491327Y514642D01*
X490319Y517075D01*
X488716Y519164D01*
X486627Y520767D01*
X484194Y521775D01*
X481584Y522118D01*
D02*
G37*
G36*
X457802Y521778D02*
X437802D01*
Y497778D01*
X457802D01*
Y521778D01*
D02*
G37*
G36*
X422402Y521864D02*
X419791Y521521D01*
X417359Y520513D01*
X415270Y518910D01*
X413667Y516821D01*
X412659Y514389D01*
X412316Y511778D01*
Y507778D01*
X412659Y505168D01*
X413667Y502735D01*
X415270Y500646D01*
X417359Y499043D01*
X419791Y498035D01*
X422402Y497692D01*
X425013Y498035D01*
X427445Y499043D01*
X429534Y500646D01*
X431137Y502735D01*
X432145Y505168D01*
X432488Y507778D01*
Y511778D01*
X432145Y514389D01*
X431137Y516821D01*
X429534Y518910D01*
X427445Y520513D01*
X425013Y521521D01*
X422402Y521864D01*
D02*
G37*
G36*
X397002D02*
X394392Y521521D01*
X391959Y520513D01*
X389870Y518910D01*
X388267Y516821D01*
X387259Y514389D01*
X386916Y511778D01*
Y507778D01*
X387259Y505168D01*
X388267Y502735D01*
X389870Y500646D01*
X391959Y499043D01*
X394392Y498035D01*
X397002Y497692D01*
X399613Y498035D01*
X402045Y499043D01*
X404134Y500646D01*
X405737Y502735D01*
X406745Y505168D01*
X407088Y507778D01*
Y511778D01*
X406745Y514389D01*
X405737Y516821D01*
X404134Y518910D01*
X402045Y520513D01*
X399613Y521521D01*
X397002Y521864D01*
D02*
G37*
G36*
X371602D02*
X368992Y521521D01*
X366559Y520513D01*
X364470Y518910D01*
X362867Y516821D01*
X361859Y514389D01*
X361516Y511778D01*
Y507778D01*
X361859Y505168D01*
X362867Y502735D01*
X364470Y500646D01*
X366559Y499043D01*
X368992Y498035D01*
X371602Y497692D01*
X374212Y498035D01*
X376645Y499043D01*
X378734Y500646D01*
X380337Y502735D01*
X381345Y505168D01*
X381688Y507778D01*
Y511778D01*
X381345Y514389D01*
X380337Y516821D01*
X378734Y518910D01*
X376645Y520513D01*
X374212Y521521D01*
X371602Y521864D01*
D02*
G37*
G36*
X346202D02*
X343591Y521521D01*
X341159Y520513D01*
X339070Y518910D01*
X337467Y516821D01*
X336459Y514389D01*
X336116Y511778D01*
Y507778D01*
X336459Y505168D01*
X337467Y502735D01*
X339070Y500646D01*
X341159Y499043D01*
X343591Y498035D01*
X346202Y497692D01*
X348812Y498035D01*
X351245Y499043D01*
X353334Y500646D01*
X354937Y502735D01*
X355945Y505168D01*
X356288Y507778D01*
Y511778D01*
X355945Y514389D01*
X354937Y516821D01*
X353334Y518910D01*
X351245Y520513D01*
X348812Y521521D01*
X346202Y521864D01*
D02*
G37*
G36*
X320802D02*
X318192Y521521D01*
X315759Y520513D01*
X313670Y518910D01*
X312067Y516821D01*
X311059Y514389D01*
X310716Y511778D01*
Y507778D01*
X311059Y505168D01*
X312067Y502735D01*
X313670Y500646D01*
X315759Y499043D01*
X318192Y498035D01*
X320802Y497692D01*
X323413Y498035D01*
X325845Y499043D01*
X327934Y500646D01*
X329537Y502735D01*
X330545Y505168D01*
X330888Y507778D01*
Y511778D01*
X330545Y514389D01*
X329537Y516821D01*
X327934Y518910D01*
X325845Y520513D01*
X323413Y521521D01*
X320802Y521864D01*
D02*
G37*
G36*
X660400Y457820D02*
X658839Y457509D01*
X657516Y456625D01*
X656632Y455302D01*
X656322Y453741D01*
X656632Y452181D01*
X657516Y450858D01*
X670366Y438008D01*
X671689Y437124D01*
X673250Y436813D01*
X674811Y437124D01*
X676134Y438008D01*
X677018Y439331D01*
X677328Y440891D01*
X677018Y442452D01*
X676134Y443775D01*
X663284Y456625D01*
X661961Y457509D01*
X660400Y457820D01*
D02*
G37*
G36*
X661250Y349786D02*
X657250D01*
X654640Y349443D01*
X652207Y348435D01*
X650118Y346832D01*
X648515Y344743D01*
X647507Y342310D01*
X647164Y339700D01*
X647507Y337090D01*
X648515Y334657D01*
X650118Y332568D01*
X652207Y330965D01*
X654640Y329957D01*
X657250Y329614D01*
X661250D01*
X663860Y329957D01*
X666293Y330965D01*
X668382Y332568D01*
X669985Y334657D01*
X670993Y337090D01*
X671336Y339700D01*
X670993Y342310D01*
X669985Y344743D01*
X668382Y346832D01*
X666293Y348435D01*
X663860Y349443D01*
X661250Y349786D01*
D02*
G37*
G36*
X663250Y273099D02*
X660248Y272704D01*
X657450Y271545D01*
X655048Y269702D01*
X653205Y267300D01*
X652046Y264502D01*
X651651Y261500D01*
X652046Y258498D01*
X653205Y255700D01*
X655048Y253298D01*
X657450Y251455D01*
X660248Y250296D01*
X663250Y249901D01*
X666252Y250296D01*
X669050Y251455D01*
X671452Y253298D01*
X673295Y255700D01*
X674454Y258498D01*
X674849Y261500D01*
X674454Y264502D01*
X673295Y267300D01*
X671452Y269702D01*
X669050Y271545D01*
X666252Y272704D01*
X663250Y273099D01*
D02*
G37*
G36*
X283306Y62598D02*
X281355Y62210D01*
X279701Y61105D01*
X278596Y59451D01*
X278208Y57500D01*
X278217Y57457D01*
X250896Y30136D01*
X250853Y30145D01*
X248902Y29757D01*
X247248Y28651D01*
X246143Y26998D01*
X245755Y25047D01*
X246143Y23096D01*
X247248Y21442D01*
X248902Y20337D01*
X250853Y19949D01*
X252804Y20337D01*
X254457Y21442D01*
X255563Y23096D01*
X255951Y25047D01*
X255942Y25089D01*
X261481Y30628D01*
X262859Y30210D01*
X263040Y29299D01*
X264145Y27645D01*
X265799Y26540D01*
X267750Y26152D01*
X269701Y26540D01*
X271355Y27645D01*
X272460Y29299D01*
X272848Y31250D01*
X272460Y33201D01*
X271355Y34855D01*
X269701Y35960D01*
X268790Y36141D01*
X268372Y37519D01*
X283263Y52411D01*
X283306Y52402D01*
X285257Y52790D01*
X286911Y53895D01*
X288016Y55549D01*
X288404Y57500D01*
X288016Y59451D01*
X286911Y61105D01*
X285257Y62210D01*
X283306Y62598D01*
D02*
G37*
G36*
X310122Y54631D02*
X307120Y54236D01*
X304322Y53077D01*
X301920Y51234D01*
X300077Y48832D01*
X298918Y46034D01*
X298523Y43032D01*
X298918Y40030D01*
X300077Y37232D01*
X301920Y34830D01*
X304322Y32987D01*
X307120Y31828D01*
X310122Y31433D01*
X313124Y31828D01*
X315922Y32987D01*
X318324Y34830D01*
X320167Y37232D01*
X321326Y40030D01*
X321721Y43032D01*
X321326Y46034D01*
X320167Y48832D01*
X318324Y51234D01*
X315922Y53077D01*
X313124Y54236D01*
X310122Y54631D01*
D02*
G37*
G36*
X245122D02*
X242120Y54236D01*
X239322Y53077D01*
X236920Y51234D01*
X235077Y48832D01*
X233918Y46034D01*
X233523Y43032D01*
X233918Y40030D01*
X235077Y37232D01*
X236920Y34830D01*
X239322Y32987D01*
X242120Y31828D01*
X245122Y31433D01*
X248124Y31828D01*
X250922Y32987D01*
X253324Y34830D01*
X255167Y37232D01*
X256326Y40030D01*
X256721Y43032D01*
X256326Y46034D01*
X255167Y48832D01*
X253324Y51234D01*
X250922Y53077D01*
X248124Y54236D01*
X245122Y54631D01*
D02*
G37*
G36*
X544450Y214016D02*
X541839Y213673D01*
X539407Y212665D01*
X537318Y211062D01*
X535715Y208973D01*
X534707Y206541D01*
X534364Y203930D01*
Y199930D01*
X534707Y197320D01*
X535715Y194887D01*
X537318Y192798D01*
X539407Y191195D01*
X541839Y190187D01*
X544450Y189844D01*
X547061Y190187D01*
X549493Y191195D01*
X551582Y192798D01*
X553185Y194887D01*
X554193Y197320D01*
X554536Y199930D01*
Y203930D01*
X554193Y206541D01*
X553185Y208973D01*
X551582Y211062D01*
X549493Y212665D01*
X547061Y213673D01*
X544450Y214016D01*
D02*
G37*
G36*
X519050D02*
X516440Y213673D01*
X514007Y212665D01*
X511918Y211062D01*
X510315Y208973D01*
X509307Y206541D01*
X508964Y203930D01*
Y199930D01*
X509307Y197320D01*
X510315Y194887D01*
X511918Y192798D01*
X514007Y191195D01*
X514478Y191000D01*
X516000Y190369D01*
X516440Y190187D01*
X519050Y189844D01*
X521660Y190187D01*
X524093Y191195D01*
X526182Y192798D01*
X527785Y194887D01*
X528793Y197320D01*
X529136Y199930D01*
Y203930D01*
X528793Y206541D01*
X527785Y208973D01*
X526182Y211062D01*
X524093Y212665D01*
X521660Y213673D01*
X519050Y214016D01*
D02*
G37*
G36*
X493650D02*
X491040Y213673D01*
X488607Y212665D01*
X486518Y211062D01*
X484915Y208973D01*
X483907Y206541D01*
X483564Y203930D01*
Y199930D01*
X483907Y197320D01*
X484915Y194887D01*
X486518Y192798D01*
X488607Y191195D01*
X491040Y190187D01*
X493650Y189844D01*
X496260Y190187D01*
X498222Y191000D01*
X498693Y191195D01*
X500782Y192798D01*
X502385Y194887D01*
X503393Y197320D01*
X503736Y199930D01*
Y203930D01*
X503393Y206541D01*
X502385Y208973D01*
X500782Y211062D01*
X498693Y212665D01*
X496260Y213673D01*
X493650Y214016D01*
D02*
G37*
G36*
X519050Y137816D02*
X516440Y137473D01*
X516000Y137291D01*
X514007Y136465D01*
X511918Y134862D01*
X510315Y132773D01*
X509307Y130340D01*
X508964Y127730D01*
Y123730D01*
X509307Y121119D01*
X510315Y118687D01*
X511918Y116598D01*
X514007Y114995D01*
X516000Y114169D01*
X516440Y113987D01*
X519050Y113644D01*
X521660Y113987D01*
X524093Y114995D01*
X526182Y116598D01*
X527785Y118687D01*
X528793Y121119D01*
X529136Y123730D01*
Y127730D01*
X528793Y130340D01*
X527785Y132773D01*
X526182Y134862D01*
X524093Y136465D01*
X521660Y137473D01*
X519050Y137816D01*
D02*
G37*
G36*
X493650D02*
X491040Y137473D01*
X488607Y136465D01*
X486518Y134862D01*
X484915Y132773D01*
X483907Y130340D01*
X483564Y127730D01*
Y123730D01*
X483907Y121119D01*
X484915Y118687D01*
X486518Y116598D01*
X488607Y114995D01*
X491040Y113987D01*
X493650Y113644D01*
X496260Y113987D01*
X498693Y114995D01*
X500782Y116598D01*
X502385Y118687D01*
X503393Y121119D01*
X503736Y123730D01*
Y127730D01*
X503393Y130340D01*
X502385Y132773D01*
X500782Y134862D01*
X498693Y136465D01*
X496260Y137473D01*
X493650Y137816D01*
D02*
G37*
%LPD*%
D13*
X642257Y417367D02*
G03*
X642241Y417383I-2129J-2113D01*
G01*
X620191Y448895D02*
G03*
X641922Y417702I40209J4846D01*
G01*
X595250Y125730D02*
X597684Y123296D01*
Y111230D02*
Y123296D01*
Y111230D02*
X606298Y102616D01*
X619463Y199393D02*
X622000Y201930D01*
X568493Y208788D02*
X571500Y205781D01*
X601712Y328992D02*
X626000Y304704D01*
X467000Y55000D02*
X510368D01*
X558350Y102982D01*
X575230Y474552D02*
X606712Y443070D01*
X577301Y479552D02*
X611712Y445141D01*
X383286Y487934D02*
X581152D01*
X641922Y417702D02*
X642241Y417383D01*
X106214Y177250D02*
Y190034D01*
X292271Y455552D02*
X383924D01*
X534506Y437552D02*
X583750Y388308D01*
Y349750D02*
Y388308D01*
X140462Y329946D02*
Y330758D01*
X203708Y341884D02*
X299376Y437552D01*
X62958Y465774D02*
X78530D01*
X643128Y381222D02*
X659250Y365100D01*
X642257Y417367D02*
X643128Y416497D01*
X619473Y449613D02*
X620191Y448895D01*
X159347Y243167D02*
X160132D01*
X106214Y190034D02*
X159347Y243167D01*
X43180Y477774D02*
X43236D01*
X55236Y465774D02*
X62958D01*
X204932Y351998D02*
X295486Y442552D01*
X43236Y477774D02*
X55236Y465774D01*
X628250Y186580D02*
X632150Y190480D01*
X358101Y474552D02*
X575230D01*
X348101Y484552D02*
X358101Y474552D01*
X219202Y495278D02*
X229928Y484552D01*
X348101D01*
X632150Y190480D02*
Y305625D01*
X606298Y102616D02*
X615799D01*
X606712Y331063D02*
X632150Y305625D01*
X637150Y188409D02*
Y307696D01*
X633250Y184509D02*
X637150Y188409D01*
X606712Y331063D02*
Y443070D01*
X601712Y328992D02*
Y435116D01*
X581152Y487934D02*
X619473Y449613D01*
X611712Y333134D02*
X637150Y307696D01*
X628250Y135330D02*
Y186580D01*
X643128Y381222D02*
Y416497D01*
X611712Y333134D02*
Y445141D01*
X234444Y466552D02*
X370770D01*
X111047Y205000D02*
X153189Y247142D01*
X109024Y205000D02*
X111047D01*
X85808Y473052D02*
X325882D01*
X558350Y132493D02*
X565087Y139230D01*
X620650Y127730D02*
X628250Y135330D01*
X620650Y125730D02*
Y127730D01*
X157651Y357952D02*
X158347Y358648D01*
X185623Y351998D02*
X204932D01*
X201168Y341884D02*
X203708D01*
X48260Y381000D02*
Y381000D01*
X244602Y507778D02*
Y509778D01*
X360172Y479552D02*
X577301D01*
X347724Y492000D02*
X360172Y479552D01*
X219202Y495278D02*
Y509778D01*
X142750Y341250D02*
X155000Y329000D01*
X260380Y492000D02*
X347724D01*
X244602Y507778D02*
X260380Y492000D01*
X155000Y448900D02*
X216792D01*
X299376Y437552D02*
X534506D01*
X296443Y448478D02*
X297017Y449052D01*
X158347Y358648D02*
X203648D01*
X293478Y448478D02*
X296443D01*
X149250Y351700D02*
X149412D01*
X155664Y357952D02*
X157651D01*
X43180Y452374D02*
X69534Y426020D01*
X129980D01*
X384020Y455648D02*
X389664D01*
X153000Y372700D02*
X155000D01*
X203648Y358648D02*
X293478Y448478D01*
X298403Y449052D02*
X376174D01*
X389664Y455648D02*
X389890Y455422D01*
X383924Y455552D02*
X384020Y455648D01*
X370770Y466552D02*
X372464Y468246D01*
X68580Y477774D02*
X83459D01*
X345132Y477516D02*
X345944D01*
X372464Y468246D02*
X568582D01*
X343097Y479552D02*
X345132Y477516D01*
X78530Y465774D02*
X85808Y473052D01*
X568582Y468246D02*
X601712Y435116D01*
X83459Y477774D02*
X85237Y479552D01*
X343097D01*
X216792Y448900D02*
X234444Y466552D01*
X371602Y509778D02*
Y515296D01*
X295486Y442552D02*
X539158D01*
X615799Y102616D02*
X633250Y120067D01*
X539158Y442552D02*
X557276Y424434D01*
X557784D01*
X633250Y120067D02*
Y184509D01*
X149412Y351700D02*
X155664Y357952D01*
X137750Y333470D02*
Y403688D01*
X571500Y198374D02*
Y205781D01*
X568493Y208788D02*
X578104D01*
X626000Y207280D02*
Y304704D01*
X619463Y189187D02*
Y199393D01*
X607276Y177000D02*
X619463Y189187D01*
X620650Y201930D02*
X626000Y207280D01*
X607276Y177000D02*
Y177000D01*
X569506Y139230D02*
X607276Y177000D01*
X565087Y139230D02*
X569506D01*
X190871Y380492D02*
X217211D01*
X292271Y455552D01*
X161003Y410360D02*
X190871Y380492D01*
X145640Y410360D02*
X161003D01*
X129980Y426020D02*
X145640Y410360D01*
X558350Y102982D02*
Y132493D01*
X137750Y403688D02*
X137922Y403860D01*
X64516Y289484D02*
Y328422D01*
Y289484D02*
X65000Y289000D01*
X290000Y152000D02*
X290450Y151550D01*
Y125730D02*
Y151550D01*
X142750Y341250D02*
Y362450D01*
X153000Y372700D01*
X48260Y381000D02*
X87260Y342000D01*
X103124D01*
X137750Y333470D02*
X140462Y330758D01*
X103124Y342000D02*
X103562Y341562D01*
X578104Y208788D02*
X613750Y244434D01*
Y290500D01*
X250853Y25047D02*
X283306Y57500D01*
D61*
X310122Y88032D02*
D03*
Y43032D02*
D03*
X245122D02*
D03*
X663250Y306500D02*
D03*
Y261500D02*
D03*
X598250D02*
D03*
D62*
X245122Y88032D02*
D03*
X598250Y306500D02*
D03*
D68*
X247000Y186000D02*
Y186541D01*
Y126096D02*
Y186000D01*
Y186541D02*
X252222Y191763D01*
Y240030D01*
X229362Y108458D02*
X247000Y126096D01*
X221988Y73000D02*
X324284D01*
X339496Y88212D01*
X16710Y395520D02*
X24681D01*
X29518Y400357D02*
Y422980D01*
Y400357D02*
Y400357D01*
X30281Y401120D01*
X24681Y395520D02*
X29518Y400357D01*
X17780Y434718D02*
Y452374D01*
Y434718D02*
X29518Y422980D01*
X28830Y399669D02*
X29518Y400357D01*
X112988Y223012D02*
X115000Y221000D01*
X60452Y223012D02*
X112988D01*
X423968Y42718D02*
X424942Y41744D01*
X402791Y44000D02*
X425250D01*
X401541Y42750D02*
X402791Y44000D01*
X401000Y42750D02*
X401541D01*
X412498Y247500D02*
X418490Y253492D01*
X540500Y318250D02*
X555750Y333500D01*
X484500Y318250D02*
X540500D01*
X416750Y250500D02*
X484500Y318250D01*
X473481Y35731D02*
X487000Y49250D01*
X459963Y22213D02*
X473481Y35731D01*
X415544Y93668D02*
Y109220D01*
Y93668D02*
X473481Y35731D01*
X203000Y249250D02*
X212220Y240030D01*
X252222D01*
X468250Y102875D02*
Y125730D01*
X466500Y101125D02*
X468250Y102875D01*
X466500Y100584D02*
Y101125D01*
X440034Y18034D02*
X446188Y24188D01*
X487000Y49250D02*
X629991D01*
X450342Y18034D02*
X454520Y22213D01*
X459963D01*
X629991Y49250D02*
X660400Y79658D01*
X424942Y18034D02*
X440034D01*
X424180Y100584D02*
X466500D01*
X415544Y109220D02*
X424180Y100584D01*
X424942Y18034D02*
Y41744D01*
X157625Y23325D02*
X159700Y25400D01*
X215825Y337945D02*
X216533D01*
X205376Y327496D02*
X215825Y337945D01*
X179922Y327496D02*
X205376D01*
X179832Y327406D02*
X179922Y327496D01*
X216533Y337945D02*
X216916Y338328D01*
X393750Y247500D02*
X412498D01*
X219710Y72136D02*
X220093Y72519D01*
X221507D01*
X221988Y73000D01*
X78130Y395986D02*
X82550D01*
X30281Y401120D02*
X72996D01*
X94996Y383540D02*
X123698D01*
X82550Y395986D02*
X94996Y383540D01*
X72996Y401120D02*
X78130Y395986D01*
X221225Y82000D02*
X227257Y88032D01*
X203000Y82000D02*
X221225D01*
X227257Y88032D02*
X245122D01*
X33000Y126000D02*
Y133684D01*
X11684Y155000D02*
X33000Y133684D01*
X8550Y155000D02*
X11684D01*
X58543Y221103D02*
X60452Y223012D01*
X8653Y221103D02*
X58543D01*
X212598Y388112D02*
Y412242D01*
X221250Y420894D01*
X123698Y401287D02*
X125222Y402811D01*
Y403352D01*
X123698Y383540D02*
Y401287D01*
X16510Y395320D02*
X16710Y395520D01*
X660400Y453741D02*
X673250Y440891D01*
X442850Y201930D02*
Y207136D01*
X467106Y126874D02*
X468250Y125730D01*
X8550Y155000D02*
Y221000D01*
X8653Y221103D01*
D69*
X176156Y278250D02*
X192024Y262382D01*
X170750Y278250D02*
Y285688D01*
Y278250D02*
X176156D01*
X67818Y388620D02*
X170750Y285688D01*
X177960Y252750D02*
X199500D01*
X155500Y275210D02*
X177960Y252750D01*
X155500Y275210D02*
Y278750D01*
X201350Y110350D02*
Y118850D01*
X193300Y102300D02*
X201350Y110350D01*
Y118850D02*
X201550Y119050D01*
Y127050D01*
X193300Y98500D02*
Y102300D01*
X153000Y182000D02*
Y187750D01*
X192000Y226750D02*
Y244750D01*
X153000Y187750D02*
X192000Y226750D01*
X199750Y252500D02*
X203000Y249250D01*
X199500Y252750D02*
X199750Y252500D01*
X192000Y244750D02*
X199750Y252500D01*
X206000Y258750D01*
X192024Y262382D02*
X198000D01*
X206000Y258750D02*
Y291000D01*
X67818Y388620D02*
X67818D01*
D70*
X152400Y508000D02*
D03*
D71*
X33000Y126000D02*
D03*
X27000Y22000D02*
D03*
D72*
X219202Y509778D02*
D03*
X244602D02*
D03*
X270002D02*
D03*
X295402D02*
D03*
X320802D02*
D03*
X346202D02*
D03*
X371602D02*
D03*
X397002D02*
D03*
X422402D02*
D03*
X323342Y18034D02*
D03*
X348742D02*
D03*
X374142D02*
D03*
X399542D02*
D03*
X424942D02*
D03*
X450342D02*
D03*
X475742D02*
D03*
X633984Y510032D02*
D03*
X608584D02*
D03*
X583184D02*
D03*
X557784D02*
D03*
X532384D02*
D03*
X506984D02*
D03*
X481584D02*
D03*
X635254Y18288D02*
D03*
X609854D02*
D03*
X584454D02*
D03*
X559054D02*
D03*
X533654D02*
D03*
X193300Y98500D02*
D03*
X167900D02*
D03*
X595250Y201930D02*
D03*
X569850D02*
D03*
X544450D02*
D03*
X519050D02*
D03*
X493650D02*
D03*
X468250D02*
D03*
X442850D02*
D03*
X417450D02*
D03*
X392050D02*
D03*
X366650D02*
D03*
X341250D02*
D03*
X315850D02*
D03*
X290450D02*
D03*
X620650Y125730D02*
D03*
X595250D02*
D03*
X569850D02*
D03*
X544450D02*
D03*
X519050D02*
D03*
X493650D02*
D03*
X468250D02*
D03*
X442850D02*
D03*
X417450D02*
D03*
X392050D02*
D03*
X366650D02*
D03*
X341250D02*
D03*
X315850D02*
D03*
X290450D02*
D03*
D73*
X447802Y509778D02*
D03*
X297942Y18034D02*
D03*
X659384Y510032D02*
D03*
X508254Y18288D02*
D03*
X142500Y98500D02*
D03*
X620650Y201930D02*
D03*
D74*
X155000Y372700D02*
D03*
Y398100D02*
D03*
Y423500D02*
D03*
X659250Y339700D02*
D03*
Y365100D02*
D03*
D75*
X155000Y448900D02*
D03*
X659250Y390500D02*
D03*
D76*
X159700Y25400D02*
D03*
X666000Y454500D02*
D03*
X665000Y79250D02*
D03*
D77*
X42418Y414020D02*
D03*
X17018D02*
D03*
X42418Y388620D02*
D03*
X17018D02*
D03*
X67818D02*
D03*
X43180Y477774D02*
D03*
X17780D02*
D03*
X43180Y452374D02*
D03*
X17780D02*
D03*
X68580D02*
D03*
X21250Y343500D02*
D03*
Y318100D02*
D03*
X46650D02*
D03*
D78*
X67818Y414020D02*
D03*
X68580Y477774D02*
D03*
X46650Y343500D02*
D03*
D79*
X8550Y155000D02*
D03*
Y221000D02*
D03*
D80*
X646750Y355000D02*
D03*
X283306Y57500D02*
D03*
X267750Y31250D02*
D03*
X247000Y186000D02*
D03*
X410000Y33000D02*
D03*
X339496Y88212D02*
D03*
X653750Y210721D02*
D03*
X583750Y349750D02*
D03*
X149250Y351700D02*
D03*
X170750Y278250D02*
D03*
X155500Y278750D02*
D03*
X115000Y221000D02*
D03*
X452750Y34620D02*
D03*
X384750Y36500D02*
D03*
X401000Y42750D02*
D03*
X201550Y127050D02*
D03*
X555750Y333500D02*
D03*
X416750Y250500D02*
D03*
X554228Y306022D02*
D03*
X467000Y55000D02*
D03*
X198000Y262382D02*
D03*
X613750Y290500D02*
D03*
X425250Y44000D02*
D03*
X256000Y121000D02*
D03*
X250853Y25047D02*
D03*
X206000Y291000D02*
D03*
X199750Y252500D02*
D03*
X481500Y62000D02*
D03*
X90250Y215000D02*
D03*
Y233750D02*
D03*
X212718Y184532D02*
D03*
X153000Y182000D02*
D03*
X231000Y132984D02*
D03*
X60000Y118000D02*
D03*
X349250Y35672D02*
D03*
X372612Y48154D02*
D03*
X462000Y267000D02*
D03*
X584000Y247000D02*
D03*
X554000Y358000D02*
D03*
X103562Y341562D02*
D03*
X140462Y329946D02*
D03*
X155000Y329000D02*
D03*
X290000Y152000D02*
D03*
X109024Y205000D02*
D03*
X65000Y289000D02*
D03*
X203000Y82000D02*
D03*
X508088Y61912D02*
D03*
X466500Y100584D02*
D03*
X335000Y33000D02*
D03*
X83652Y318822D02*
D03*
X484378Y265938D02*
D03*
X60452Y223012D02*
D03*
X47752Y202946D02*
D03*
X357378Y73406D02*
D03*
X201168Y341884D02*
D03*
X393750Y247500D02*
D03*
X231140Y109474D02*
D03*
X212598Y388112D02*
D03*
X219710Y72136D02*
D03*
X221250Y420894D02*
D03*
X125222Y403352D02*
D03*
X137922Y403860D02*
D03*
X658876Y177292D02*
D03*
X415544Y109220D02*
D03*
X216916Y338328D02*
D03*
X160132Y243167D02*
D03*
X575969Y420013D02*
D03*
X123698Y383540D02*
D03*
X252222Y240030D02*
D03*
X64516Y328422D02*
D03*
X181000Y464497D02*
D03*
X557784Y424434D02*
D03*
X29210Y296418D02*
D03*
X153189Y247142D02*
D03*
X179832Y327406D02*
D03*
X297017Y449052D02*
D03*
X389890Y455422D02*
D03*
X376174Y449052D02*
D03*
X383286Y487934D02*
D03*
X325882Y473052D02*
D03*
X345944Y477516D02*
D03*
X185623Y351998D02*
D03*
X106214Y177250D02*
D03*
M02*
