G04*
G04 #@! TF.GenerationSoftware,Altium Limited,Altium Designer,20.2.4 (192)*
G04*
G04 Layer_Color=8388736*
%FSLAX44Y44*%
%MOMM*%
G71*
G04*
G04 #@! TF.SameCoordinates,CA4B6327-8C8C-4F40-9CFE-90DE2028BA09*
G04*
G04*
G04 #@! TF.FilePolarity,Negative*
G04*
G01*
G75*
%ADD34R,3.7000X2.4000*%
%ADD35R,0.8000X2.4000*%
%ADD36R,2.8000X2.7000*%
%ADD37R,2.7000X2.8000*%
%ADD38R,1.8000X3.2000*%
%ADD39C,3.0480*%
%ADD40R,0.7500X1.2000*%
%ADD41R,2.9000X2.2000*%
%ADD42R,1.0000X1.0000*%
%ADD43R,2.1000X2.1000*%
%ADD44R,1.6000X1.8000*%
%ADD45R,1.4500X0.5000*%
%ADD46R,0.6700X1.6200*%
%ADD47R,1.6200X0.6700*%
%ADD48R,0.7842X0.7588*%
%ADD49R,0.9000X1.5000*%
%ADD50R,1.5000X0.9000*%
%ADD51R,1.1000X0.8000*%
%ADD52R,1.1000X1.5000*%
%ADD53R,1.5000X1.1000*%
%ADD54C,3.4000*%
%ADD55C,4.2000*%
%ADD56O,1.8000X2.2000*%
%ADD57R,1.8000X2.2000*%
%ADD58O,2.2000X1.8000*%
%ADD59R,2.2000X1.8000*%
%ADD60C,7.6000*%
%ADD61C,1.9000*%
%ADD62R,1.9000X1.9000*%
%ADD63C,2.1000*%
%ADD64R,2.1000X2.1000*%
G04:AMPARAMS|DCode=65|XSize=2.2mm|YSize=1.4mm|CornerRadius=0.46mm|HoleSize=0mm|Usage=FLASHONLY|Rotation=0.000|XOffset=0mm|YOffset=0mm|HoleType=Round|Shape=RoundedRectangle|*
%AMROUNDEDRECTD65*
21,1,2.2000,0.4800,0,0,0.0*
21,1,1.2800,1.4000,0,0,0.0*
1,1,0.9200,0.6400,-0.2400*
1,1,0.9200,-0.6400,-0.2400*
1,1,0.9200,-0.6400,0.2400*
1,1,0.9200,0.6400,0.2400*
%
%ADD65ROUNDEDRECTD65*%
%ADD66C,0.8000*%
D34*
X188500Y189750D02*
D03*
D35*
X163100Y127750D02*
D03*
X175800D02*
D03*
X188500D02*
D03*
X201200D02*
D03*
X213900D02*
D03*
D36*
X255270Y333988D02*
D03*
Y284988D02*
D03*
D37*
X436234Y283718D02*
D03*
X387234D02*
D03*
D38*
X87250Y99750D02*
D03*
Y140750D02*
D03*
X86750Y66000D02*
D03*
Y25000D02*
D03*
D39*
X83250Y515000D02*
D03*
X602742Y457708D02*
D03*
X274750Y76250D02*
D03*
X668500Y17000D02*
D03*
D40*
X180250Y429250D02*
D03*
X189750D02*
D03*
X199250D02*
D03*
X180250Y456250D02*
D03*
X199250D02*
D03*
X339496Y63462D02*
D03*
X348996D02*
D03*
X358496D02*
D03*
X339496Y90462D02*
D03*
X358496D02*
D03*
X49750Y243250D02*
D03*
X59250D02*
D03*
X68750D02*
D03*
X49750Y270250D02*
D03*
X68750D02*
D03*
X671000Y214750D02*
D03*
X661500D02*
D03*
X652000D02*
D03*
X671000Y187750D02*
D03*
X652000D02*
D03*
D41*
X41148Y57406D02*
D03*
Y89406D02*
D03*
D42*
X246000Y431500D02*
D03*
X262000D02*
D03*
X246500Y415000D02*
D03*
X262500D02*
D03*
X246000Y397750D02*
D03*
X262000D02*
D03*
X617250Y430750D02*
D03*
X601250D02*
D03*
D43*
X8550Y176000D02*
D03*
Y200000D02*
D03*
D44*
X33050Y156000D02*
D03*
Y220000D02*
D03*
D45*
X35300Y175000D02*
D03*
Y181500D02*
D03*
Y188000D02*
D03*
Y194500D02*
D03*
Y201000D02*
D03*
D46*
X133000Y344250D02*
D03*
X149000Y260250D02*
D03*
X125000Y344250D02*
D03*
X149000D02*
D03*
X133000Y260250D02*
D03*
X141000Y344250D02*
D03*
X157000Y260250D02*
D03*
X141000D02*
D03*
X125000D02*
D03*
X173000Y344250D02*
D03*
X165000D02*
D03*
X157000D02*
D03*
X181000D02*
D03*
X165000Y260250D02*
D03*
X181000D02*
D03*
X173000D02*
D03*
D47*
X111000Y322250D02*
D03*
Y330250D02*
D03*
Y282250D02*
D03*
Y298250D02*
D03*
Y274250D02*
D03*
Y306250D02*
D03*
Y314250D02*
D03*
Y290250D02*
D03*
X195000Y322250D02*
D03*
Y306250D02*
D03*
Y330250D02*
D03*
Y290250D02*
D03*
Y298250D02*
D03*
Y282250D02*
D03*
Y314250D02*
D03*
Y274250D02*
D03*
D48*
X14478Y285242D02*
D03*
X39370D02*
D03*
X650058Y232250D02*
D03*
X674950D02*
D03*
D49*
X243750Y453500D02*
D03*
X262750D02*
D03*
X405486Y73914D02*
D03*
X386486D02*
D03*
X299750Y418250D02*
D03*
X280750D02*
D03*
X299500Y394250D02*
D03*
X280500D02*
D03*
X529000Y77250D02*
D03*
X510000D02*
D03*
X236372Y476504D02*
D03*
X255372D02*
D03*
X70510Y348996D02*
D03*
X89510D02*
D03*
X97892Y200914D02*
D03*
X78892D02*
D03*
X98500Y177250D02*
D03*
X79500D02*
D03*
X581250Y412250D02*
D03*
X600250D02*
D03*
X386334Y97028D02*
D03*
X405334D02*
D03*
X628500Y231500D02*
D03*
X609500D02*
D03*
X378654Y230746D02*
D03*
X397654D02*
D03*
X71250Y320500D02*
D03*
X90250D02*
D03*
X573250Y231500D02*
D03*
X592250D02*
D03*
X91390Y288798D02*
D03*
X72390D02*
D03*
D50*
X239000Y119250D02*
D03*
Y138250D02*
D03*
X218948Y13106D02*
D03*
Y32106D02*
D03*
X509577Y76260D02*
D03*
Y95260D02*
D03*
X217424Y308508D02*
D03*
Y327508D02*
D03*
X87884Y265786D02*
D03*
Y246786D02*
D03*
X122428Y193650D02*
D03*
Y174650D02*
D03*
X598250Y371750D02*
D03*
Y390750D02*
D03*
X221234Y272948D02*
D03*
Y291948D02*
D03*
X599250Y353500D02*
D03*
Y334500D02*
D03*
X631952Y334162D02*
D03*
Y353162D02*
D03*
X568750Y313500D02*
D03*
Y294500D02*
D03*
X568500Y276500D02*
D03*
Y257500D02*
D03*
D51*
X62500Y168000D02*
D03*
Y183000D02*
D03*
X61750Y212250D02*
D03*
Y197250D02*
D03*
D52*
X214732Y72136D02*
D03*
X195732D02*
D03*
X247802Y16764D02*
D03*
X266802D02*
D03*
X234290Y244094D02*
D03*
X215290D02*
D03*
X92862Y382778D02*
D03*
X111862D02*
D03*
X271882Y254508D02*
D03*
X252882D02*
D03*
X266802Y363728D02*
D03*
X247802D02*
D03*
X92862Y438404D02*
D03*
X111862D02*
D03*
X291744Y470916D02*
D03*
X310744D02*
D03*
X437490Y253492D02*
D03*
X418490D02*
D03*
X473558Y231394D02*
D03*
X454558D02*
D03*
X412862Y44654D02*
D03*
X431862D02*
D03*
X335178Y42672D02*
D03*
X354178D02*
D03*
X374112Y44654D02*
D03*
X393112D02*
D03*
X442750Y74000D02*
D03*
X423750D02*
D03*
X442500Y96500D02*
D03*
X423500D02*
D03*
X480924Y96477D02*
D03*
X461924D02*
D03*
X379374Y252476D02*
D03*
X398374D02*
D03*
X416204Y230886D02*
D03*
X435204D02*
D03*
X32000Y265500D02*
D03*
X13000D02*
D03*
X671750Y167250D02*
D03*
X652750D02*
D03*
X32000Y242250D02*
D03*
X13000D02*
D03*
X672000Y144000D02*
D03*
X653000D02*
D03*
X233782Y221742D02*
D03*
X214782D02*
D03*
X456844Y253238D02*
D03*
X475844D02*
D03*
X462250Y73000D02*
D03*
X481250D02*
D03*
D53*
X221250Y452500D02*
D03*
Y433500D02*
D03*
X239500Y157000D02*
D03*
Y176000D02*
D03*
X138500Y124000D02*
D03*
Y143000D02*
D03*
X192000Y239328D02*
D03*
Y220327D02*
D03*
X166630Y232470D02*
D03*
Y213470D02*
D03*
X144492Y232892D02*
D03*
Y213892D02*
D03*
X122492Y233142D02*
D03*
Y214142D02*
D03*
X622500Y372250D02*
D03*
Y391250D02*
D03*
X569250Y356000D02*
D03*
Y337000D02*
D03*
D54*
X152400Y508000D02*
D03*
D55*
X33000Y126000D02*
D03*
X27000Y22000D02*
D03*
D56*
X219202Y509778D02*
D03*
X244602D02*
D03*
X270002D02*
D03*
X295402D02*
D03*
X320802D02*
D03*
X346202D02*
D03*
X371602D02*
D03*
X397002D02*
D03*
X422402D02*
D03*
X323342Y18034D02*
D03*
X348742D02*
D03*
X374142D02*
D03*
X399542D02*
D03*
X424942D02*
D03*
X450342D02*
D03*
X475742D02*
D03*
X633984Y510032D02*
D03*
X608584D02*
D03*
X583184D02*
D03*
X557784D02*
D03*
X532384D02*
D03*
X506984D02*
D03*
X481584D02*
D03*
X635254Y18288D02*
D03*
X609854D02*
D03*
X584454D02*
D03*
X559054D02*
D03*
X533654D02*
D03*
X193300Y98500D02*
D03*
X167900D02*
D03*
X595250Y201930D02*
D03*
X569850D02*
D03*
X544450D02*
D03*
X519050D02*
D03*
X493650D02*
D03*
X468250D02*
D03*
X442850D02*
D03*
X417450D02*
D03*
X392050D02*
D03*
X366650D02*
D03*
X341250D02*
D03*
X315850D02*
D03*
X290450D02*
D03*
X620650Y125730D02*
D03*
X595250D02*
D03*
X569850D02*
D03*
X544450D02*
D03*
X519050D02*
D03*
X493650D02*
D03*
X468250D02*
D03*
X442850D02*
D03*
X417450D02*
D03*
X392050D02*
D03*
X366650D02*
D03*
X341250D02*
D03*
X315850D02*
D03*
X290450D02*
D03*
D57*
X447802Y509778D02*
D03*
X297942Y18034D02*
D03*
X659384Y510032D02*
D03*
X508254Y18288D02*
D03*
X142500Y98500D02*
D03*
X620650Y201930D02*
D03*
D58*
X155000Y372700D02*
D03*
Y398100D02*
D03*
Y423500D02*
D03*
X659250Y339700D02*
D03*
Y365100D02*
D03*
D59*
X155000Y448900D02*
D03*
X659250Y390500D02*
D03*
D60*
X159700Y25400D02*
D03*
X666000Y454500D02*
D03*
X665000Y79250D02*
D03*
D61*
X42418Y414020D02*
D03*
X17018D02*
D03*
X42418Y388620D02*
D03*
X17018D02*
D03*
X67818D02*
D03*
X43180Y477774D02*
D03*
X17780D02*
D03*
X43180Y452374D02*
D03*
X17780D02*
D03*
X68580D02*
D03*
X21250Y343500D02*
D03*
Y318100D02*
D03*
X46650D02*
D03*
D62*
X67818Y414020D02*
D03*
X68580Y477774D02*
D03*
X46650Y343500D02*
D03*
D63*
X310122Y88032D02*
D03*
Y43032D02*
D03*
X245122D02*
D03*
X663250Y306500D02*
D03*
Y261500D02*
D03*
X598250D02*
D03*
D64*
X245122Y88032D02*
D03*
X598250Y306500D02*
D03*
D65*
X8550Y155000D02*
D03*
Y221000D02*
D03*
D66*
X646750Y355000D02*
D03*
X283306Y57500D02*
D03*
X267750Y31250D02*
D03*
X247000Y186000D02*
D03*
X410000Y33000D02*
D03*
X339496Y88212D02*
D03*
X653750Y210721D02*
D03*
X583750Y349750D02*
D03*
X149250Y351700D02*
D03*
X170750Y278250D02*
D03*
X155500Y278750D02*
D03*
X115000Y221000D02*
D03*
X452750Y34620D02*
D03*
X384750Y36500D02*
D03*
X401000Y42750D02*
D03*
X201550Y127050D02*
D03*
X555750Y333500D02*
D03*
X416750Y250500D02*
D03*
X554228Y306022D02*
D03*
X467000Y55000D02*
D03*
X198000Y262382D02*
D03*
X613750Y290500D02*
D03*
X425250Y44000D02*
D03*
X256000Y121000D02*
D03*
X250853Y25047D02*
D03*
X206000Y291000D02*
D03*
X199750Y252500D02*
D03*
X481500Y62000D02*
D03*
X90250Y215000D02*
D03*
Y233750D02*
D03*
X212718Y184532D02*
D03*
X153000Y182000D02*
D03*
X231000Y132984D02*
D03*
X60000Y118000D02*
D03*
X349250Y35672D02*
D03*
X372612Y48154D02*
D03*
X462000Y267000D02*
D03*
X584000Y247000D02*
D03*
X554000Y358000D02*
D03*
X103562Y341562D02*
D03*
X140462Y329946D02*
D03*
X155000Y329000D02*
D03*
X290000Y152000D02*
D03*
X109024Y205000D02*
D03*
X65000Y289000D02*
D03*
X203000Y82000D02*
D03*
X508088Y61912D02*
D03*
X466500Y100584D02*
D03*
X335000Y33000D02*
D03*
X83652Y318822D02*
D03*
X484378Y265938D02*
D03*
X60452Y223012D02*
D03*
X47752Y202946D02*
D03*
X357378Y73406D02*
D03*
X201168Y341884D02*
D03*
X393750Y247500D02*
D03*
X231140Y109474D02*
D03*
X212598Y388112D02*
D03*
X219710Y72136D02*
D03*
X221250Y420894D02*
D03*
X125222Y403352D02*
D03*
X137922Y403860D02*
D03*
X658876Y177292D02*
D03*
X415544Y109220D02*
D03*
X216916Y338328D02*
D03*
X160132Y243167D02*
D03*
X575969Y420013D02*
D03*
X123698Y383540D02*
D03*
X252222Y240030D02*
D03*
X64516Y328422D02*
D03*
X181000Y464497D02*
D03*
X557784Y424434D02*
D03*
X29210Y296418D02*
D03*
X153189Y247142D02*
D03*
X179832Y327406D02*
D03*
X297017Y449052D02*
D03*
X389890Y455422D02*
D03*
X376174Y449052D02*
D03*
X383286Y487934D02*
D03*
X325882Y473052D02*
D03*
X345944Y477516D02*
D03*
X185623Y351998D02*
D03*
X106214Y177250D02*
D03*
M02*
