G04*
G04 #@! TF.GenerationSoftware,Altium Limited,Altium Designer,20.2.4 (192)*
G04*
G04 Layer_Color=32896*
%FSLAX44Y44*%
%MOMM*%
G71*
G04*
G04 #@! TF.SameCoordinates,CA4B6327-8C8C-4F40-9CFE-90DE2028BA09*
G04*
G04*
G04 #@! TF.FilePolarity,Positive*
G04*
G01*
G75*
%ADD10C,0.2000*%
%ADD13C,0.3000*%
D10*
X425756Y448000D02*
X445750D01*
X439086Y441335D01*
X445750Y434671D01*
X425756D01*
Y428006D02*
X445750D01*
X439086Y421342D01*
X445750Y414677D01*
X425756D01*
Y408013D02*
X445750D01*
X439086Y401348D01*
X445750Y394684D01*
X425756D01*
X445750Y388019D02*
X442418D01*
Y384687D01*
X445750D01*
Y388019D01*
X425756Y371358D02*
X445750D01*
X439086D01*
X425756Y358029D01*
X435753Y368026D01*
X445750Y358029D01*
X429089Y338035D02*
X425756Y341368D01*
Y348032D01*
X429089Y351364D01*
X432421D01*
X435753Y348032D01*
Y341368D01*
X439086Y338035D01*
X442418D01*
X445750Y341368D01*
Y348032D01*
X442418Y351364D01*
X425756Y331371D02*
X445750D01*
Y321374D01*
X442418Y318042D01*
X439086D01*
X435753Y321374D01*
Y331371D01*
Y321374D01*
X432421Y318042D01*
X429089D01*
X425756Y321374D01*
Y331371D01*
Y301381D02*
Y308045D01*
X429089Y311377D01*
X442418D01*
X445750Y308045D01*
Y301381D01*
X442418Y298048D01*
X429089D01*
X425756Y301381D01*
X445750Y291384D02*
X432421D01*
X425756Y284719D01*
X432421Y278055D01*
X445750D01*
X435753D01*
Y291384D01*
X445750Y271390D02*
X425756D01*
Y261393D01*
X429089Y258061D01*
X435753D01*
X439086Y261393D01*
Y271390D01*
Y264726D02*
X445750Y258061D01*
X425756Y251397D02*
X445750D01*
Y241400D01*
X442418Y238068D01*
X429089D01*
X425756Y241400D01*
Y251397D01*
X429089Y218074D02*
X425756Y221406D01*
Y228071D01*
X429089Y231403D01*
X432421D01*
X435753Y228071D01*
Y221406D01*
X439086Y218074D01*
X442418D01*
X445750Y221406D01*
Y228071D01*
X442418Y231403D01*
X445750Y211409D02*
X442418D01*
Y208077D01*
X445750D01*
Y211409D01*
X429089Y181419D02*
X425756Y184751D01*
Y191416D01*
X429089Y194748D01*
X442418D01*
X445750Y191416D01*
Y184751D01*
X442418Y181419D01*
X425756Y164758D02*
Y171422D01*
X429089Y174755D01*
X442418D01*
X445750Y171422D01*
Y164758D01*
X442418Y161426D01*
X429089D01*
X425756Y164758D01*
X445750Y154761D02*
X425756D01*
X432421Y148097D01*
X425756Y141432D01*
X445750D01*
X349000Y486500D02*
Y483168D01*
Y484834D01*
X339003D01*
X340669Y486500D01*
X349000Y471505D02*
Y478169D01*
X342336Y471505D01*
X340669D01*
X339003Y473171D01*
Y476503D01*
X340669Y478169D01*
X476503Y488500D02*
Y481836D01*
X478169D01*
X484834Y488500D01*
X486500D01*
X562250Y485252D02*
X552253D01*
X557252Y490250D01*
Y483586D01*
X675250Y506419D02*
X676916Y504753D01*
X680248D01*
X681915Y506419D01*
Y513084D01*
X680248Y514750D01*
X676916D01*
X675250Y513084D01*
Y506419D01*
X375000Y485500D02*
Y482168D01*
Y483834D01*
X365003D01*
X366669Y485500D01*
X375000Y477169D02*
Y473837D01*
Y475503D01*
X365003D01*
X366669Y477169D01*
Y468839D02*
X365003Y467173D01*
Y463840D01*
X363337Y462174D01*
X400500Y485750D02*
Y482418D01*
Y484084D01*
X390503D01*
X392169Y485750D01*
Y477419D02*
X390503Y475753D01*
Y472421D01*
X392169Y470755D01*
X398834D01*
X400500Y472421D01*
Y475753D01*
X398834Y477419D01*
X392169D01*
Y467423D02*
X390503Y465756D01*
Y462424D01*
X388837Y460758D01*
X425084Y486000D02*
X426750Y484334D01*
Y481002D01*
X425084Y479336D01*
X418419D01*
X416753Y481002D01*
Y484334D01*
X418419Y486000D01*
X420085D01*
X421752Y484334D01*
Y479336D01*
X418419Y476003D02*
X416753Y474337D01*
Y471005D01*
X415087Y469339D01*
X501253Y484086D02*
X502919Y487418D01*
X506252Y490750D01*
X509584D01*
X511250Y489084D01*
Y485752D01*
X509584Y484086D01*
X507918D01*
X506252Y485752D01*
Y490750D01*
X502919Y480753D02*
X501253Y479087D01*
Y475755D01*
X499587Y474089D01*
X525253Y484585D02*
Y491250D01*
X530252D01*
X528586Y487918D01*
Y486252D01*
X530252Y484585D01*
X533584D01*
X535250Y486252D01*
Y489584D01*
X533584Y491250D01*
X526919Y481253D02*
X525253Y479587D01*
Y476255D01*
X523587Y474589D01*
X578669Y491000D02*
X577003Y489334D01*
Y486002D01*
X578669Y484336D01*
X580336D01*
X582002Y486002D01*
Y487668D01*
Y486002D01*
X583668Y484336D01*
X585334D01*
X587000Y486002D01*
Y489334D01*
X585334Y491000D01*
X578669Y481003D02*
X577003Y479337D01*
Y476005D01*
X575337Y474339D01*
X302750Y54000D02*
X292753D01*
X302750Y47336D01*
X292753D01*
X294419Y37339D02*
X292753Y39005D01*
Y42337D01*
X294419Y44003D01*
X301084D01*
X302750Y42337D01*
Y39005D01*
X301084Y37339D01*
X614250Y50000D02*
X607585D01*
X604253Y46668D01*
X607585Y43335D01*
X614250D01*
X609252D01*
Y50000D01*
X614250Y35005D02*
X604253D01*
X609252Y40003D01*
Y33339D01*
X588000Y49750D02*
X581335D01*
X578003Y46418D01*
X581335Y43085D01*
X588000D01*
X583002D01*
Y49750D01*
X579669Y39753D02*
X578003Y38087D01*
Y34755D01*
X579669Y33089D01*
X581335D01*
X583002Y34755D01*
Y36421D01*
Y34755D01*
X584668Y33089D01*
X586334D01*
X588000Y34755D01*
Y38087D01*
X586334Y39753D01*
X561500Y49750D02*
X554836D01*
X551503Y46418D01*
X554836Y43085D01*
X561500D01*
X556502D01*
Y49750D01*
X561500Y33089D02*
Y39753D01*
X554836Y33089D01*
X553169D01*
X551503Y34755D01*
Y38087D01*
X553169Y39753D01*
X536000Y47250D02*
X529336D01*
X526003Y43918D01*
X529336Y40585D01*
X536000D01*
X531002D01*
Y47250D01*
X536000Y37253D02*
Y33921D01*
Y35587D01*
X526003D01*
X527669Y37253D01*
X510500Y51000D02*
X503835D01*
X500503Y47668D01*
X503835Y44335D01*
X510500D01*
X505502D01*
Y51000D01*
X502169Y41003D02*
X500503Y39337D01*
Y36005D01*
X502169Y34339D01*
X508834D01*
X510500Y36005D01*
Y39337D01*
X508834Y41003D01*
X502169D01*
X638500Y50000D02*
X631836D01*
X628503Y46668D01*
X631836Y43335D01*
X638500D01*
X633502D01*
Y50000D01*
X628503Y33339D02*
Y40003D01*
X633502D01*
X631836Y36671D01*
Y35005D01*
X633502Y33339D01*
X636834D01*
X638500Y35005D01*
Y38337D01*
X636834Y40003D01*
X481250Y50500D02*
X471253D01*
X481250Y43836D01*
X471253D01*
X472919Y33839D02*
X471253Y35505D01*
Y38837D01*
X472919Y40503D01*
X479584D01*
X481250Y38837D01*
Y35505D01*
X479584Y33839D01*
X353500Y82000D02*
X343503D01*
Y77002D01*
X345169Y75335D01*
X348502D01*
X350168Y77002D01*
Y82000D01*
Y78668D02*
X353500Y75335D01*
X343503Y65339D02*
Y72003D01*
X353500D01*
Y65339D01*
X348502Y72003D02*
Y68671D01*
X345169Y55342D02*
X343503Y57008D01*
Y60340D01*
X345169Y62007D01*
X346836D01*
X348502Y60340D01*
Y57008D01*
X350168Y55342D01*
X351834D01*
X353500Y57008D01*
Y60340D01*
X351834Y62007D01*
X343503Y45345D02*
Y52010D01*
X353500D01*
Y45345D01*
X348502Y52010D02*
Y48677D01*
X343503Y42013D02*
Y35348D01*
Y38681D01*
X353500D01*
X324002Y102250D02*
Y95585D01*
X320669Y98918D02*
X327334D01*
X319003Y85589D02*
Y92253D01*
X324002D01*
X322336Y88921D01*
Y87255D01*
X324002Y85589D01*
X327334D01*
X329000Y87255D01*
Y90587D01*
X327334Y92253D01*
X319003Y82256D02*
X325668D01*
X329000Y78924D01*
X325668Y75592D01*
X319003D01*
X329000Y72260D02*
X322336Y65595D01*
X320669Y62263D02*
X319003Y60597D01*
Y57264D01*
X320669Y55598D01*
X322336D01*
X324002Y57264D01*
Y58931D01*
Y57264D01*
X325668Y55598D01*
X327334D01*
X329000Y57264D01*
Y60597D01*
X327334Y62263D01*
X319003Y52266D02*
X325668D01*
X329000Y48934D01*
X325668Y45602D01*
X319003D01*
X320669Y42269D02*
X319003Y40603D01*
Y37271D01*
X320669Y35605D01*
X322336D01*
X324002Y37271D01*
Y38937D01*
Y37271D01*
X325668Y35605D01*
X327334D01*
X329000Y37271D01*
Y40603D01*
X327334Y42269D01*
X371919Y62750D02*
X370253Y61084D01*
Y57752D01*
X371919Y56086D01*
X373586D01*
X375252Y57752D01*
Y59418D01*
Y57752D01*
X376918Y56086D01*
X378584D01*
X380250Y57752D01*
Y61084D01*
X378584Y62750D01*
X370253Y52753D02*
X376918D01*
X380250Y49421D01*
X376918Y46089D01*
X370253D01*
X371919Y42757D02*
X370253Y41090D01*
Y37758D01*
X371919Y36092D01*
X373586D01*
X375252Y37758D01*
Y39424D01*
Y37758D01*
X376918Y36092D01*
X378584D01*
X380250Y37758D01*
Y41090D01*
X378584Y42757D01*
X398502Y62500D02*
Y55835D01*
X395169Y59168D02*
X401834D01*
X393503Y45839D02*
Y52503D01*
X398502D01*
X396836Y49171D01*
Y47505D01*
X398502Y45839D01*
X401834D01*
X403500Y47505D01*
Y50837D01*
X401834Y52503D01*
X393503Y42506D02*
X400168D01*
X403500Y39174D01*
X400168Y35842D01*
X393503D01*
X421419Y54585D02*
X419753Y56252D01*
Y59584D01*
X421419Y61250D01*
X428084D01*
X429750Y59584D01*
Y56252D01*
X428084Y54585D01*
X424752D01*
Y57918D01*
X429750Y51253D02*
X419753D01*
X429750Y44589D01*
X419753D01*
Y41256D02*
X429750D01*
Y36258D01*
X428084Y34592D01*
X421419D01*
X419753Y36258D01*
Y41256D01*
X447919Y54836D02*
X446253Y56502D01*
Y59834D01*
X447919Y61500D01*
X454584D01*
X456250Y59834D01*
Y56502D01*
X454584Y54836D01*
X451252D01*
Y58168D01*
X456250Y51503D02*
X446253D01*
X456250Y44839D01*
X446253D01*
Y41507D02*
X456250D01*
Y36508D01*
X454584Y34842D01*
X447919D01*
X446253Y36508D01*
Y41507D01*
X638500Y491500D02*
Y488168D01*
Y489834D01*
X628503D01*
X630169Y491500D01*
X612500Y484336D02*
Y491000D01*
X605835Y484336D01*
X604169D01*
X602503Y486002D01*
Y489334D01*
X604169Y491000D01*
X442919Y487000D02*
X441253Y485334D01*
Y482002D01*
X442919Y480336D01*
X444585D01*
X446252Y482002D01*
X447918Y480336D01*
X449584D01*
X451250Y482002D01*
Y485334D01*
X449584Y487000D01*
X447918D01*
X446252Y485334D01*
X444585Y487000D01*
X442919D01*
X446252Y485334D02*
Y482002D01*
X324750Y487000D02*
Y483668D01*
Y485334D01*
X314753D01*
X316419Y487000D01*
Y478669D02*
X314753Y477003D01*
Y473671D01*
X316419Y472005D01*
X318085D01*
X319752Y473671D01*
Y475337D01*
Y473671D01*
X321418Y472005D01*
X323084D01*
X324750Y473671D01*
Y477003D01*
X323084Y478669D01*
X290419Y482085D02*
X288753Y483752D01*
Y487084D01*
X290419Y488750D01*
X297084D01*
X298750Y487084D01*
Y483752D01*
X297084Y482085D01*
X293752D01*
Y485418D01*
X298750Y478753D02*
X288753D01*
X298750Y472089D01*
X288753D01*
Y468756D02*
X298750D01*
Y463758D01*
X297084Y462092D01*
X290419D01*
X288753Y463758D01*
Y468756D01*
X270502Y490000D02*
Y483335D01*
X267169Y486668D02*
X273834D01*
X275500Y480003D02*
X268836D01*
X265503Y476671D01*
X268836Y473339D01*
X275500D01*
X270502D01*
Y480003D01*
X275500Y470006D02*
X265503D01*
Y465008D01*
X267169Y463342D01*
X270502D01*
X272168Y465008D01*
Y470006D01*
Y466674D02*
X275500Y463342D01*
X265503Y453345D02*
Y460010D01*
X275500D01*
Y453345D01*
X270502Y460010D02*
Y456677D01*
X265503Y443348D02*
Y450013D01*
X270502D01*
Y446681D01*
Y450013D01*
X275500D01*
X70919Y146750D02*
Y140085D01*
X67587Y143418D02*
X74252D01*
X65921Y130089D02*
Y136753D01*
X70919D01*
X69253Y133421D01*
Y131755D01*
X70919Y130089D01*
X74252D01*
X75918Y131755D01*
Y135087D01*
X74252Y136753D01*
X65921Y126756D02*
X72586D01*
X75918Y123424D01*
X72586Y120092D01*
X65921D01*
Y106763D02*
Y103431D01*
Y105097D01*
X75918D01*
Y106763D01*
Y103431D01*
Y98432D02*
X69253D01*
Y93434D01*
X70919Y91768D01*
X75918D01*
X79250Y88435D02*
X69253D01*
Y83437D01*
X70919Y81771D01*
X74252D01*
X75918Y83437D01*
Y88435D01*
X69253Y78439D02*
X74252D01*
X75918Y76773D01*
Y71774D01*
X69253D01*
X67587Y66776D02*
X69253D01*
Y68442D01*
Y65110D01*
Y66776D01*
X74252D01*
X75918Y65110D01*
Y50114D02*
X65921D01*
Y45116D01*
X67587Y43450D01*
X70919D01*
X72586Y45116D01*
Y50114D01*
X75918Y38452D02*
Y35119D01*
X74252Y33453D01*
X70919D01*
X69253Y35119D01*
Y38452D01*
X70919Y40118D01*
X74252D01*
X75918Y38452D01*
X69253Y30121D02*
X74252D01*
X75918Y28455D01*
X74252Y26789D01*
X75918Y25123D01*
X74252Y23456D01*
X69253D01*
X75918Y15126D02*
Y18458D01*
X74252Y20124D01*
X70919D01*
X69253Y18458D01*
Y15126D01*
X70919Y13460D01*
X72586D01*
Y20124D01*
X69253Y10127D02*
X75918D01*
X72586D01*
X70919Y8461D01*
X69253Y6795D01*
Y5129D01*
X8750Y132500D02*
Y119171D01*
X12335Y54750D02*
Y41421D01*
X5671Y48085D02*
X19000D01*
X248250Y487250D02*
X241586D01*
X238253Y483918D01*
X241586Y480586D01*
X248250D01*
X243252D01*
Y487250D01*
X238253Y477253D02*
X248250D01*
Y472255D01*
X246584Y470589D01*
X239919D01*
X238253Y472255D01*
Y477253D01*
X248250Y462258D02*
X238253D01*
X243252Y467257D01*
Y460592D01*
X248250Y457260D02*
X241586Y450595D01*
X239919Y440598D02*
X238253Y442265D01*
Y445597D01*
X239919Y447263D01*
X241586D01*
X243252Y445597D01*
Y442265D01*
X244918Y440598D01*
X246584D01*
X248250Y442265D01*
Y445597D01*
X246584Y447263D01*
X238253Y437266D02*
X248250D01*
Y432268D01*
X246584Y430602D01*
X239919D01*
X238253Y432268D01*
Y437266D01*
X248250Y427269D02*
X241586D01*
X238253Y423937D01*
X241586Y420605D01*
X248250D01*
X243252D01*
Y427269D01*
X223000Y487500D02*
X216336D01*
X213003Y484168D01*
X216336Y480835D01*
X223000D01*
X218002D01*
Y487500D01*
X213003Y477503D02*
X223000D01*
Y472505D01*
X221334Y470839D01*
X214669D01*
X213003Y472505D01*
Y477503D01*
Y460842D02*
Y467506D01*
X218002D01*
X216336Y464174D01*
Y462508D01*
X218002Y460842D01*
X221334D01*
X223000Y462508D01*
Y465840D01*
X221334Y467506D01*
X223000Y457510D02*
X216336Y450845D01*
X214669Y440848D02*
X213003Y442514D01*
Y445847D01*
X214669Y447513D01*
X216336D01*
X218002Y445847D01*
Y442514D01*
X219668Y440848D01*
X221334D01*
X223000Y442514D01*
Y445847D01*
X221334Y447513D01*
X214669Y430852D02*
X213003Y432518D01*
Y435850D01*
X214669Y437516D01*
X221334D01*
X223000Y435850D01*
Y432518D01*
X221334Y430852D01*
X213003Y427519D02*
X223000D01*
Y420855D01*
D13*
X372006Y445250D02*
X392000D01*
X385336D01*
X372006Y431921D01*
X382003Y441918D01*
X392000Y431921D01*
X375339Y411927D02*
X372006Y415260D01*
Y421924D01*
X375339Y425257D01*
X378671D01*
X382003Y421924D01*
Y415260D01*
X385336Y411927D01*
X388668D01*
X392000Y415260D01*
Y421924D01*
X388668Y425257D01*
X372006Y385269D02*
X392000D01*
Y375273D01*
X388668Y371940D01*
X385336D01*
X382003Y375273D01*
Y385269D01*
Y375273D01*
X378671Y371940D01*
X375339D01*
X372006Y375273D01*
Y385269D01*
Y355279D02*
Y361944D01*
X375339Y365276D01*
X388668D01*
X392000Y361944D01*
Y355279D01*
X388668Y351947D01*
X375339D01*
X372006Y355279D01*
X392000Y345282D02*
X378671D01*
X372006Y338618D01*
X378671Y331953D01*
X392000D01*
X382003D01*
Y345282D01*
X392000Y325289D02*
X372006D01*
Y315292D01*
X375339Y311960D01*
X382003D01*
X385336Y315292D01*
Y325289D01*
Y318624D02*
X392000Y311960D01*
X372006Y305295D02*
X392000D01*
Y295298D01*
X388668Y291966D01*
X375339D01*
X372006Y295298D01*
Y305295D01*
X375339Y271973D02*
X372006Y275305D01*
Y281969D01*
X375339Y285301D01*
X378671D01*
X382003Y281969D01*
Y275305D01*
X385336Y271973D01*
X388668D01*
X392000Y275305D01*
Y281969D01*
X388668Y285301D01*
M02*
