G04*
G04 #@! TF.GenerationSoftware,Altium Limited,Altium Designer,20.2.4 (192)*
G04*
G04 Layer_Color=8421504*
%FSLAX44Y44*%
%MOMM*%
G71*
G04*
G04 #@! TF.SameCoordinates,CA4B6327-8C8C-4F40-9CFE-90DE2028BA09*
G04*
G04*
G04 #@! TF.FilePolarity,Positive*
G04*
G01*
G75*
%ADD15R,3.5000X2.2000*%
%ADD16R,0.6000X2.2000*%
%ADD17R,2.6000X2.5000*%
%ADD18R,2.5000X2.6000*%
%ADD19R,1.6000X3.0000*%
%ADD20R,0.5500X1.0000*%
%ADD21R,2.7000X2.0000*%
%ADD22R,0.8000X0.8000*%
%ADD23R,1.9000X1.9000*%
%ADD24R,1.4000X1.6000*%
%ADD25R,1.3500X0.4000*%
%ADD26R,0.5500X1.5000*%
%ADD27R,1.5000X0.5500*%
%ADD28R,0.5842X0.5588*%
%ADD29R,0.7000X1.3000*%
%ADD30R,1.3000X0.7000*%
%ADD31R,0.9000X0.6000*%
%ADD32R,0.9000X1.3000*%
%ADD33R,1.3000X0.9000*%
D15*
X188500Y189750D02*
D03*
D16*
X163100Y127750D02*
D03*
X175800D02*
D03*
X188500D02*
D03*
X201200D02*
D03*
X213900D02*
D03*
D17*
X255270Y333988D02*
D03*
Y284988D02*
D03*
D18*
X436234Y283718D02*
D03*
X387234D02*
D03*
D19*
X87250Y99750D02*
D03*
Y140750D02*
D03*
X86750Y66000D02*
D03*
Y25000D02*
D03*
D20*
X180250Y429250D02*
D03*
X189750D02*
D03*
X199250D02*
D03*
X180250Y456250D02*
D03*
X199250D02*
D03*
X339496Y63462D02*
D03*
X348996D02*
D03*
X358496D02*
D03*
X339496Y90462D02*
D03*
X358496D02*
D03*
X49750Y243250D02*
D03*
X59250D02*
D03*
X68750D02*
D03*
X49750Y270250D02*
D03*
X68750D02*
D03*
X671000Y214750D02*
D03*
X661500D02*
D03*
X652000D02*
D03*
X671000Y187750D02*
D03*
X652000D02*
D03*
D21*
X41148Y57406D02*
D03*
Y89406D02*
D03*
D22*
X246000Y431500D02*
D03*
X262000D02*
D03*
X246500Y415000D02*
D03*
X262500D02*
D03*
X246000Y397750D02*
D03*
X262000D02*
D03*
X617250Y430750D02*
D03*
X601250D02*
D03*
D23*
X8550Y176000D02*
D03*
Y200000D02*
D03*
D24*
X33050Y156000D02*
D03*
Y220000D02*
D03*
D25*
X35300Y175000D02*
D03*
Y181500D02*
D03*
Y188000D02*
D03*
Y194500D02*
D03*
Y201000D02*
D03*
D26*
X133000Y344250D02*
D03*
X149000Y260250D02*
D03*
X125000Y344250D02*
D03*
X149000D02*
D03*
X133000Y260250D02*
D03*
X141000Y344250D02*
D03*
X157000Y260250D02*
D03*
X141000D02*
D03*
X125000D02*
D03*
X173000Y344250D02*
D03*
X165000D02*
D03*
X157000D02*
D03*
X181000D02*
D03*
X165000Y260250D02*
D03*
X181000D02*
D03*
X173000D02*
D03*
D27*
X111000Y322250D02*
D03*
Y330250D02*
D03*
Y282250D02*
D03*
Y298250D02*
D03*
Y274250D02*
D03*
Y306250D02*
D03*
Y314250D02*
D03*
Y290250D02*
D03*
X195000Y322250D02*
D03*
Y306250D02*
D03*
Y330250D02*
D03*
Y290250D02*
D03*
Y298250D02*
D03*
Y282250D02*
D03*
Y314250D02*
D03*
Y274250D02*
D03*
D28*
X14478Y285242D02*
D03*
X39370D02*
D03*
X650058Y232250D02*
D03*
X674950D02*
D03*
D29*
X243750Y453500D02*
D03*
X262750D02*
D03*
X405486Y73914D02*
D03*
X386486D02*
D03*
X299750Y418250D02*
D03*
X280750D02*
D03*
X299500Y394250D02*
D03*
X280500D02*
D03*
X529000Y77250D02*
D03*
X510000D02*
D03*
X236372Y476504D02*
D03*
X255372D02*
D03*
X70510Y348996D02*
D03*
X89510D02*
D03*
X97892Y200914D02*
D03*
X78892D02*
D03*
X98500Y177250D02*
D03*
X79500D02*
D03*
X581250Y412250D02*
D03*
X600250D02*
D03*
X386334Y97028D02*
D03*
X405334D02*
D03*
X628500Y231500D02*
D03*
X609500D02*
D03*
X378654Y230746D02*
D03*
X397654D02*
D03*
X71250Y320500D02*
D03*
X90250D02*
D03*
X573250Y231500D02*
D03*
X592250D02*
D03*
X91390Y288798D02*
D03*
X72390D02*
D03*
D30*
X239000Y119250D02*
D03*
Y138250D02*
D03*
X218948Y13106D02*
D03*
Y32106D02*
D03*
X509577Y76260D02*
D03*
Y95260D02*
D03*
X217424Y308508D02*
D03*
Y327508D02*
D03*
X87884Y265786D02*
D03*
Y246786D02*
D03*
X122428Y193650D02*
D03*
Y174650D02*
D03*
X598250Y371750D02*
D03*
Y390750D02*
D03*
X221234Y272948D02*
D03*
Y291948D02*
D03*
X599250Y353500D02*
D03*
Y334500D02*
D03*
X631952Y334162D02*
D03*
Y353162D02*
D03*
X568750Y313500D02*
D03*
Y294500D02*
D03*
X568500Y276500D02*
D03*
Y257500D02*
D03*
D31*
X62500Y168000D02*
D03*
Y183000D02*
D03*
X61750Y212250D02*
D03*
Y197250D02*
D03*
D32*
X214732Y72136D02*
D03*
X195732D02*
D03*
X247802Y16764D02*
D03*
X266802D02*
D03*
X234290Y244094D02*
D03*
X215290D02*
D03*
X92862Y382778D02*
D03*
X111862D02*
D03*
X271882Y254508D02*
D03*
X252882D02*
D03*
X266802Y363728D02*
D03*
X247802D02*
D03*
X92862Y438404D02*
D03*
X111862D02*
D03*
X291744Y470916D02*
D03*
X310744D02*
D03*
X437490Y253492D02*
D03*
X418490D02*
D03*
X473558Y231394D02*
D03*
X454558D02*
D03*
X412862Y44654D02*
D03*
X431862D02*
D03*
X335178Y42672D02*
D03*
X354178D02*
D03*
X374112Y44654D02*
D03*
X393112D02*
D03*
X442750Y74000D02*
D03*
X423750D02*
D03*
X442500Y96500D02*
D03*
X423500D02*
D03*
X480924Y96477D02*
D03*
X461924D02*
D03*
X379374Y252476D02*
D03*
X398374D02*
D03*
X416204Y230886D02*
D03*
X435204D02*
D03*
X32000Y265500D02*
D03*
X13000D02*
D03*
X671750Y167250D02*
D03*
X652750D02*
D03*
X32000Y242250D02*
D03*
X13000D02*
D03*
X672000Y144000D02*
D03*
X653000D02*
D03*
X233782Y221742D02*
D03*
X214782D02*
D03*
X456844Y253238D02*
D03*
X475844D02*
D03*
X462250Y73000D02*
D03*
X481250D02*
D03*
D33*
X221250Y452500D02*
D03*
Y433500D02*
D03*
X239500Y157000D02*
D03*
Y176000D02*
D03*
X138500Y124000D02*
D03*
Y143000D02*
D03*
X192000Y239328D02*
D03*
Y220327D02*
D03*
X166630Y232470D02*
D03*
Y213470D02*
D03*
X144492Y232892D02*
D03*
Y213892D02*
D03*
X122492Y233142D02*
D03*
Y214142D02*
D03*
X622500Y372250D02*
D03*
Y391250D02*
D03*
X569250Y356000D02*
D03*
Y337000D02*
D03*
M02*
