G04*
G04 #@! TF.GenerationSoftware,Altium Limited,Altium Designer,20.2.4 (192)*
G04*
G04 Layer_Color=3150156*
%FSLAX44Y44*%
%MOMM*%
G71*
G04*
G04 #@! TF.SameCoordinates,CA4B6327-8C8C-4F40-9CFE-90DE2028BA09*
G04*
G04*
G04 #@! TF.FilePolarity,Positive*
G04*
G01*
G75*
%ADD12C,0.2540*%
%ADD81C,1.0000*%
%ADD82C,2.0000*%
%ADD83C,0.5000*%
%ADD84C,0.1524*%
D12*
X687250Y-52250D02*
Y-40460D01*
X-11500Y-45540D02*
Y-21290D01*
X363267Y-43000D02*
X687250D01*
X-11500D02*
X304355D01*
X672010Y-37920D02*
X687250Y-43000D01*
X672010Y-48080D02*
X687250Y-43000D01*
X-11500D02*
X3740Y-48080D01*
X-11500Y-43000D02*
X3740Y-37920D01*
X-54250Y534750D02*
X-50460D01*
X-55540Y-8750D02*
X-24040D01*
X-53000Y289661D02*
Y534750D01*
Y-8750D02*
Y228211D01*
X-58080Y519510D02*
X-53000Y534750D01*
X-47920Y519510D01*
X-53000Y-8750D02*
X-47920Y6490D01*
X-58080D02*
X-53000Y-8750D01*
D81*
X178752Y26250D02*
G03*
X178752Y26250I-19502J0D01*
G01*
X684252Y76250D02*
G03*
X684252Y76250I-19502J0D01*
G01*
X684752Y455250D02*
G03*
X684752Y455250I-19502J0D01*
G01*
X172002Y508500D02*
G03*
X172002Y508500I-19502J0D01*
G01*
X333250Y684984D02*
Y651661D01*
X349911Y635000D01*
X366572Y651661D01*
Y684984D01*
X383234Y635000D02*
X399895D01*
X391564D01*
Y684984D01*
X383234Y676653D01*
X424887Y684984D02*
X441548D01*
X433218D01*
Y635000D01*
X424887D01*
X441548D01*
X466540D02*
X483201D01*
X474871D01*
Y684984D01*
X466540Y676653D01*
X-268000Y734661D02*
Y784645D01*
X-251339Y767984D01*
X-234678Y784645D01*
Y734661D01*
X-193024D02*
X-209685D01*
X-218016Y742992D01*
Y759653D01*
X-209685Y767984D01*
X-193024D01*
X-184694Y759653D01*
Y751323D01*
X-218016D01*
X-134710Y767984D02*
X-159702D01*
X-168032Y759653D01*
Y742992D01*
X-159702Y734661D01*
X-134710D01*
X-118048Y784645D02*
Y734661D01*
Y759653D01*
X-109718Y767984D01*
X-93057D01*
X-84726Y759653D01*
Y734661D01*
X-59734Y767984D02*
X-43073D01*
X-34742Y759653D01*
Y734661D01*
X-59734D01*
X-68065Y742992D01*
X-59734Y751323D01*
X-34742D01*
X-18081Y734661D02*
Y767984D01*
X6911D01*
X15242Y759653D01*
Y734661D01*
X31903D02*
X48564D01*
X40234D01*
Y767984D01*
X31903D01*
X106879D02*
X81887D01*
X73556Y759653D01*
Y742992D01*
X81887Y734661D01*
X106879D01*
X131871Y767984D02*
X148532D01*
X156863Y759653D01*
Y734661D01*
X131871D01*
X123540Y742992D01*
X131871Y751323D01*
X156863D01*
X173524Y734661D02*
X190185D01*
X181855D01*
Y784645D01*
X173524D01*
X265161D02*
Y734661D01*
X290153D01*
X298484Y742992D01*
Y776314D01*
X290153Y784645D01*
X265161D01*
X315145Y767984D02*
Y734661D01*
Y751323D01*
X323475Y759653D01*
X331806Y767984D01*
X340137D01*
X373459D02*
X390121D01*
X398451Y759653D01*
Y734661D01*
X373459D01*
X365129Y742992D01*
X373459Y751323D01*
X398451D01*
X415113Y767984D02*
Y742992D01*
X423443Y734661D01*
X431774Y742992D01*
X440104Y734661D01*
X448435Y742992D01*
Y767984D01*
X465096Y734661D02*
X481758D01*
X473427D01*
Y767984D01*
X465096D01*
X506750Y734661D02*
Y767984D01*
X531741D01*
X540072Y759653D01*
Y734661D01*
X573395Y718000D02*
X581725D01*
X590056Y726331D01*
Y767984D01*
X565064D01*
X556734Y759653D01*
Y742992D01*
X565064Y734661D01*
X590056D01*
X681693Y784645D02*
X665032D01*
X656701Y776314D01*
Y742992D01*
X665032Y734661D01*
X681693D01*
X690024Y742992D01*
Y776314D01*
X681693Y784645D01*
X715016Y734661D02*
Y776314D01*
Y759653D01*
X706685D01*
X723346D01*
X715016D01*
Y776314D01*
X723346Y784645D01*
X798322Y734661D02*
Y767984D01*
X814983Y784645D01*
X831645Y767984D01*
Y734661D01*
Y759653D01*
X798322D01*
X848306Y767984D02*
Y734661D01*
Y751323D01*
X856637Y759653D01*
X864967Y767984D01*
X873298D01*
X931612Y784645D02*
Y734661D01*
X906620D01*
X898290Y742992D01*
Y759653D01*
X906620Y767984D01*
X931612D01*
X948274D02*
Y742992D01*
X956604Y734661D01*
X981596D01*
Y767984D01*
X998257Y734661D02*
X1014919D01*
X1006588D01*
Y767984D01*
X998257D01*
X1039911Y734661D02*
Y767984D01*
X1064903D01*
X1073233Y759653D01*
Y734661D01*
X1098225D02*
X1114886D01*
X1123217Y742992D01*
Y759653D01*
X1114886Y767984D01*
X1098225D01*
X1089894Y759653D01*
Y742992D01*
X1098225Y734661D01*
D82*
X-11500Y544500D02*
X697250D01*
X697250Y-8750D01*
X-11500Y544500D02*
X-11500Y-8750D01*
X697250D01*
D83*
X183750Y-80510D02*
Y-105502D01*
X188748Y-110500D01*
X198745D01*
X203743Y-105502D01*
Y-80510D01*
X213740Y-110500D02*
Y-90506D01*
X228735D01*
X233734Y-95505D01*
Y-110500D01*
X243731D02*
X253727D01*
X248729D01*
Y-90506D01*
X243731D01*
X273721Y-85508D02*
Y-90506D01*
X268722D01*
X278719D01*
X273721D01*
Y-105502D01*
X278719Y-110500D01*
X293714D02*
X308710D01*
X313708Y-105502D01*
X308710Y-100503D01*
X298713D01*
X293714Y-95505D01*
X298713Y-90506D01*
X313708D01*
X323705D02*
X328703D01*
Y-95505D01*
X323705D01*
Y-90506D01*
Y-105502D02*
X328703D01*
Y-110500D01*
X323705D01*
Y-105502D01*
X378687Y-110500D02*
Y-80510D01*
X388684Y-90506D01*
X398680Y-80510D01*
Y-110500D01*
X408677D02*
X418674D01*
X413676D01*
Y-90506D01*
X408677D01*
X433669Y-110500D02*
X443666D01*
X438667D01*
Y-80510D01*
X433669D01*
X458661Y-110500D02*
X473656D01*
X478655Y-105502D01*
X473656Y-100503D01*
X463659D01*
X458661Y-95505D01*
X463659Y-90506D01*
X478655D01*
D84*
X318576Y-52141D02*
X308419D01*
X318576Y-41985D01*
Y-39446D01*
X316037Y-36906D01*
X310958D01*
X308419Y-39446D01*
X323654Y-36906D02*
X333811D01*
Y-39446D01*
X323654Y-49602D01*
Y-52141D01*
X349046Y-36906D02*
X338889D01*
Y-44524D01*
X343968Y-41985D01*
X346507D01*
X349046Y-44524D01*
Y-49602D01*
X346507Y-52141D01*
X341429D01*
X338889Y-49602D01*
X354124Y-52141D02*
X359203D01*
X356664D01*
Y-36906D01*
X354124Y-39446D01*
X-43858Y242431D02*
Y232275D01*
X-54015Y242431D01*
X-56554D01*
X-59093Y239892D01*
Y234814D01*
X-56554Y232275D01*
X-43858Y247510D02*
Y252588D01*
Y250049D01*
X-59093D01*
X-56554Y247510D01*
X-43858Y267823D02*
X-59093D01*
X-51476Y260206D01*
Y270362D01*
X-56554Y275441D02*
X-59093Y277980D01*
Y283058D01*
X-56554Y285597D01*
X-46398D01*
X-43858Y283058D01*
Y277980D01*
X-46398Y275441D01*
X-56554D01*
M02*
