G04*
G04 #@! TF.GenerationSoftware,Altium Limited,Altium Designer,20.2.4 (192)*
G04*
G04 Layer_Color=39423*
%FSLAX44Y44*%
%MOMM*%
G71*
G04*
G04 #@! TF.SameCoordinates,CA4B6327-8C8C-4F40-9CFE-90DE2028BA09*
G04*
G04*
G04 #@! TF.FilePolarity,Positive*
G04*
G01*
G75*
%ADD83C,0.5000*%
D83*
X66829Y-212674D02*
X63497Y-209342D01*
X56832D01*
X53500Y-212674D01*
Y-226003D01*
X56832Y-229335D01*
X63497D01*
X66829Y-226003D01*
X76826Y-229335D02*
X83490D01*
X86823Y-226003D01*
Y-219339D01*
X83490Y-216007D01*
X76826D01*
X73494Y-219339D01*
Y-226003D01*
X76826Y-229335D01*
X93487D02*
Y-216007D01*
X103484D01*
X106816Y-219339D01*
Y-229335D01*
X116813Y-212674D02*
Y-216007D01*
X113481D01*
X120145D01*
X116813D01*
Y-226003D01*
X120145Y-229335D01*
X133474Y-216007D02*
X140139D01*
X143471Y-219339D01*
Y-229335D01*
X133474D01*
X130142Y-226003D01*
X133474Y-222671D01*
X143471D01*
X163465Y-216007D02*
X153468D01*
X150135Y-219339D01*
Y-226003D01*
X153468Y-229335D01*
X163465D01*
X173461Y-212674D02*
Y-216007D01*
X170129D01*
X176794D01*
X173461D01*
Y-226003D01*
X176794Y-229335D01*
X186790Y-216007D02*
X190123D01*
Y-219339D01*
X186790D01*
Y-216007D01*
Y-226003D02*
X190123D01*
Y-229335D01*
X186790D01*
Y-226003D01*
X236774Y-212674D02*
X233442Y-209342D01*
X226777D01*
X223445Y-212674D01*
Y-216007D01*
X226777Y-219339D01*
X233442D01*
X236774Y-222671D01*
Y-226003D01*
X233442Y-229335D01*
X226777D01*
X223445Y-226003D01*
X243439Y-216007D02*
Y-226003D01*
X246771Y-229335D01*
X256768D01*
Y-216007D01*
X263432Y-236000D02*
Y-216007D01*
X273429D01*
X276761Y-219339D01*
Y-226003D01*
X273429Y-229335D01*
X263432D01*
X283426Y-236000D02*
Y-216007D01*
X293423D01*
X296755Y-219339D01*
Y-226003D01*
X293423Y-229335D01*
X283426D01*
X306752D02*
X313416D01*
X316749Y-226003D01*
Y-219339D01*
X313416Y-216007D01*
X306752D01*
X303419Y-219339D01*
Y-226003D01*
X306752Y-229335D01*
X323413Y-216007D02*
Y-229335D01*
Y-222671D01*
X326745Y-219339D01*
X330078Y-216007D01*
X333410D01*
X346739Y-212674D02*
Y-216007D01*
X343407D01*
X350071D01*
X346739D01*
Y-226003D01*
X350071Y-229335D01*
X370065Y-222671D02*
Y-219339D01*
X366732D01*
Y-222671D01*
X370065D01*
X373397Y-219339D01*
Y-212674D01*
X370065Y-209342D01*
X363400D01*
X360068Y-212674D01*
Y-226003D01*
X363400Y-229335D01*
X373397D01*
X380061D02*
Y-209342D01*
Y-222671D02*
X390058Y-216007D01*
X380061Y-222671D02*
X390058Y-229335D01*
X400055D02*
X410052D01*
X413384Y-226003D01*
X410052Y-222671D01*
X403387D01*
X400055Y-219339D01*
X403387Y-216007D01*
X413384D01*
X420048Y-209342D02*
Y-229335D01*
X430045D01*
X433377Y-226003D01*
Y-222671D01*
Y-219339D01*
X430045Y-216007D01*
X420048D01*
X443374Y-229335D02*
X450039D01*
X453371Y-226003D01*
Y-219339D01*
X450039Y-216007D01*
X443374D01*
X440042Y-219339D01*
Y-226003D01*
X443374Y-229335D01*
X463368Y-216007D02*
X470032D01*
X473365Y-219339D01*
Y-229335D01*
X463368D01*
X460036Y-226003D01*
X463368Y-222671D01*
X473365D01*
X480029Y-216007D02*
Y-229335D01*
Y-222671D01*
X483361Y-219339D01*
X486694Y-216007D01*
X490026D01*
X513352Y-209342D02*
Y-229335D01*
X503355D01*
X500023Y-226003D01*
Y-219339D01*
X503355Y-216007D01*
X513352D01*
X520016Y-229335D02*
X530013D01*
X533345Y-226003D01*
X530013Y-222671D01*
X523349D01*
X520016Y-219339D01*
X523349Y-216007D01*
X533345D01*
X540010Y-229335D02*
Y-226003D01*
X543342D01*
Y-229335D01*
X540010D01*
X570000Y-216007D02*
X560003D01*
X556671Y-219339D01*
Y-226003D01*
X560003Y-229335D01*
X570000D01*
X579997D02*
X586661D01*
X589994Y-226003D01*
Y-219339D01*
X586661Y-216007D01*
X579997D01*
X576665Y-219339D01*
Y-226003D01*
X579997Y-229335D01*
X596658D02*
Y-216007D01*
X599991D01*
X603323Y-219339D01*
Y-229335D01*
Y-219339D01*
X606655Y-216007D01*
X609987Y-219339D01*
Y-229335D01*
X797500Y297161D02*
X810829Y283832D01*
X797500D02*
X810829Y297161D01*
X797500Y290497D02*
X810829D01*
X804165Y283832D02*
Y297161D01*
X817494D02*
X830823Y283832D01*
X817494D02*
X830823Y297161D01*
X817494Y290497D02*
X830823D01*
X824158Y283832D02*
Y297161D01*
X837487Y280500D02*
Y300494D01*
X850816Y280500D01*
Y300494D01*
X860813Y280500D02*
X867477D01*
X870810Y283832D01*
Y290497D01*
X867477Y293829D01*
X860813D01*
X857481Y290497D01*
Y283832D01*
X860813Y280500D01*
X897468D02*
Y300494D01*
X907465D01*
X910797Y297161D01*
Y290497D01*
X907465Y287164D01*
X897468D01*
X920794Y293829D02*
X927458D01*
X930790Y290497D01*
Y280500D01*
X920794D01*
X917461Y283832D01*
X920794Y287164D01*
X930790D01*
X937455Y280500D02*
Y293829D01*
X947452D01*
X950784Y290497D01*
Y280500D01*
X967445D02*
X960781D01*
X957449Y283832D01*
Y290497D01*
X960781Y293829D01*
X967445D01*
X970778Y290497D01*
Y287164D01*
X957449D01*
X977442Y280500D02*
X984107D01*
X980774D01*
Y300494D01*
X977442D01*
X994103Y280500D02*
X1000768D01*
X997436D01*
Y293829D01*
X994103D01*
X1010765D02*
X1024094D01*
X1010765Y280500D01*
X1024094D01*
X1034090Y293829D02*
X1040755D01*
X1044087Y290497D01*
Y280500D01*
X1034090D01*
X1030758Y283832D01*
X1034090Y287164D01*
X1044087D01*
X1054084Y297161D02*
Y293829D01*
X1050752D01*
X1057416D01*
X1054084D01*
Y283832D01*
X1057416Y280500D01*
X1067413D02*
X1074078D01*
X1070745D01*
Y293829D01*
X1067413D01*
X1087406Y280500D02*
X1094071D01*
X1097403Y283832D01*
Y290497D01*
X1094071Y293829D01*
X1087406D01*
X1084074Y290497D01*
Y283832D01*
X1087406Y280500D01*
X1104068D02*
Y293829D01*
X1114065D01*
X1117397Y290497D01*
Y280500D01*
X182000Y-176171D02*
Y-186168D01*
X185332Y-189500D01*
X188664Y-186168D01*
X191997Y-189500D01*
X195329Y-186168D01*
Y-176171D01*
X201994D02*
Y-186168D01*
X205326Y-189500D01*
X208658Y-186168D01*
X211990Y-189500D01*
X215323Y-186168D01*
Y-176171D01*
X221987D02*
Y-186168D01*
X225319Y-189500D01*
X228652Y-186168D01*
X231984Y-189500D01*
X235316Y-186168D01*
Y-176171D01*
X241981Y-189500D02*
Y-186168D01*
X245313D01*
Y-189500D01*
X241981D01*
X258642D02*
Y-169506D01*
Y-182836D02*
X268639Y-176171D01*
X258642Y-182836D02*
X268639Y-189500D01*
X278636D02*
X288632D01*
X291964Y-186168D01*
X288632Y-182836D01*
X281968D01*
X278636Y-179503D01*
X281968Y-176171D01*
X291964D01*
X298629Y-169506D02*
Y-189500D01*
X308626D01*
X311958Y-186168D01*
Y-182836D01*
Y-179503D01*
X308626Y-176171D01*
X298629D01*
X321955Y-189500D02*
X328619D01*
X331952Y-186168D01*
Y-179503D01*
X328619Y-176171D01*
X321955D01*
X318623Y-179503D01*
Y-186168D01*
X321955Y-189500D01*
X341948Y-176171D02*
X348613D01*
X351945Y-179503D01*
Y-189500D01*
X341948D01*
X338616Y-186168D01*
X341948Y-182836D01*
X351945D01*
X358610Y-176171D02*
Y-189500D01*
Y-182836D01*
X361942Y-179503D01*
X365274Y-176171D01*
X368606D01*
X391932Y-169506D02*
Y-189500D01*
X381936D01*
X378603Y-186168D01*
Y-179503D01*
X381936Y-176171D01*
X391932D01*
X398597Y-189500D02*
X408594D01*
X411926Y-186168D01*
X408594Y-182836D01*
X401929D01*
X398597Y-179503D01*
X401929Y-176171D01*
X411926D01*
X418590Y-189500D02*
Y-186168D01*
X421923D01*
Y-189500D01*
X418590D01*
X448581Y-176171D02*
X438584D01*
X435252Y-179503D01*
Y-186168D01*
X438584Y-189500D01*
X448581D01*
X458577D02*
X465242D01*
X468574Y-186168D01*
Y-179503D01*
X465242Y-176171D01*
X458577D01*
X455245Y-179503D01*
Y-186168D01*
X458577Y-189500D01*
X475239D02*
Y-176171D01*
X478571D01*
X481903Y-179503D01*
Y-189500D01*
Y-179503D01*
X485236Y-176171D01*
X488568Y-179503D01*
Y-189500D01*
X-120000Y597161D02*
X-106671Y583832D01*
X-120000D02*
X-106671Y597161D01*
X-120000Y590497D02*
X-106671D01*
X-113336Y583832D02*
Y597161D01*
X-100007D02*
X-86677Y583832D01*
X-100007D02*
X-86677Y597161D01*
X-100007Y590497D02*
X-86677D01*
X-93342Y583832D02*
Y597161D01*
X-66684D02*
X-70016Y600494D01*
X-76681D01*
X-80013Y597161D01*
Y593829D01*
X-76681Y590497D01*
X-70016D01*
X-66684Y587164D01*
Y583832D01*
X-70016Y580500D01*
X-76681D01*
X-80013Y583832D01*
X-50023Y600494D02*
X-56687D01*
X-60019Y597161D01*
Y583832D01*
X-56687Y580500D01*
X-50023D01*
X-46690Y583832D01*
Y597161D01*
X-50023Y600494D01*
X-40026D02*
Y580500D01*
X-26697D01*
X-20032Y600494D02*
Y580500D01*
X-10035D01*
X-6703Y583832D01*
Y597161D01*
X-10035Y600494D01*
X-20032D01*
X13290D02*
X-39D01*
Y580500D01*
X13290D01*
X-39Y590497D02*
X6626D01*
X19955Y580500D02*
Y600494D01*
X29952D01*
X33284Y597161D01*
Y590497D01*
X29952Y587164D01*
X19955D01*
X26619D02*
X33284Y580500D01*
X59942D02*
Y600494D01*
X69939D01*
X73271Y597161D01*
Y590497D01*
X69939Y587164D01*
X59942D01*
X66606D02*
X73271Y580500D01*
X93265Y600494D02*
X79936D01*
Y580500D01*
X93265D01*
X79936Y590497D02*
X86600D01*
X113258Y597161D02*
X109926Y600494D01*
X103261D01*
X99929Y597161D01*
Y593829D01*
X103261Y590497D01*
X109926D01*
X113258Y587164D01*
Y583832D01*
X109926Y580500D01*
X103261D01*
X99929Y583832D01*
X119923Y600494D02*
X126587D01*
X123255D01*
Y580500D01*
X119923D01*
X126587D01*
X149913Y597161D02*
X146581Y600494D01*
X139916D01*
X136584Y597161D01*
Y593829D01*
X139916Y590497D01*
X146581D01*
X149913Y587164D01*
Y583832D01*
X146581Y580500D01*
X139916D01*
X136584Y583832D01*
X156578Y600494D02*
X169907D01*
X163242D01*
Y580500D01*
X176571Y593829D02*
X179903D01*
Y590497D01*
X176571D01*
Y593829D01*
Y583832D02*
X179903D01*
Y580500D01*
X176571D01*
Y583832D01*
X213226Y580500D02*
Y593829D01*
X219890Y600494D01*
X226555Y593829D01*
Y580500D01*
Y590497D01*
X213226D01*
X233220Y580500D02*
Y600494D01*
X243216D01*
X246549Y597161D01*
Y590497D01*
X243216Y587164D01*
X233220D01*
X253213Y580500D02*
Y600494D01*
X263210D01*
X266542Y597161D01*
Y590497D01*
X263210Y587164D01*
X253213D01*
X273207Y600494D02*
Y580500D01*
X286536D01*
X293200Y600494D02*
Y597161D01*
X299865Y590497D01*
X306529Y597161D01*
Y600494D01*
X299865Y590497D02*
Y580500D01*
X333187Y600494D02*
X346516D01*
X339852D01*
Y580500D01*
X363178Y600494D02*
X356513D01*
X353181Y597161D01*
Y583832D01*
X356513Y580500D01*
X363178D01*
X366510Y583832D01*
Y597161D01*
X363178Y600494D01*
X393168D02*
Y580500D01*
X403165D01*
X406497Y583832D01*
Y587164D01*
X403165Y590497D01*
X393168D01*
X403165D01*
X406497Y593829D01*
Y597161D01*
X403165Y600494D01*
X393168D01*
X423158D02*
X416494D01*
X413162Y597161D01*
Y583832D01*
X416494Y580500D01*
X423158D01*
X426491Y583832D01*
Y597161D01*
X423158Y600494D01*
X433155D02*
X446484D01*
X439820D01*
Y580500D01*
X453149Y600494D02*
Y580500D01*
Y590497D01*
X466478D01*
Y600494D01*
Y580500D01*
X506465Y597161D02*
X503133Y600494D01*
X496468D01*
X493136Y597161D01*
Y593829D01*
X496468Y590497D01*
X503133D01*
X506465Y587164D01*
Y583832D01*
X503133Y580500D01*
X496468D01*
X493136Y583832D01*
X513129Y600494D02*
X519794D01*
X516462D01*
Y580500D01*
X513129D01*
X519794D01*
X529791Y600494D02*
Y580500D01*
X539787D01*
X543120Y583832D01*
Y597161D01*
X539787Y600494D01*
X529791D01*
X563113D02*
X549784D01*
Y580500D01*
X563113D01*
X549784Y590497D02*
X556449D01*
X583107Y597161D02*
X579775Y600494D01*
X573110D01*
X569778Y597161D01*
Y593829D01*
X573110Y590497D01*
X579775D01*
X583107Y587164D01*
Y583832D01*
X579775Y580500D01*
X573110D01*
X569778Y583832D01*
X623094Y597161D02*
X619762Y600494D01*
X613097D01*
X609765Y597161D01*
Y583832D01*
X613097Y580500D01*
X619762D01*
X623094Y583832D01*
X639755Y600494D02*
X633091D01*
X629758Y597161D01*
Y583832D01*
X633091Y580500D01*
X639755D01*
X643087Y583832D01*
Y597161D01*
X639755Y600494D01*
X649752D02*
Y580500D01*
X663081D01*
X679742Y600494D02*
X673078D01*
X669745Y597161D01*
Y583832D01*
X673078Y580500D01*
X679742D01*
X683075Y583832D01*
Y597161D01*
X679742Y600494D01*
X689739Y580500D02*
Y600494D01*
X699736D01*
X703068Y597161D01*
Y590497D01*
X699736Y587164D01*
X689739D01*
X696404D02*
X703068Y580500D01*
X729726Y593829D02*
X733058D01*
Y590497D01*
X729726D01*
Y593829D01*
Y583832D02*
X733058D01*
Y580500D01*
X729726D01*
Y583832D01*
X779710Y597161D02*
X776378Y600494D01*
X769713D01*
X766381Y597161D01*
Y583832D01*
X769713Y580500D01*
X776378D01*
X779710Y583832D01*
Y590497D01*
X773046D01*
X786375Y580500D02*
Y600494D01*
X796371D01*
X799704Y597161D01*
Y590497D01*
X796371Y587164D01*
X786375D01*
X793039D02*
X799704Y580500D01*
X819697Y600494D02*
X806368D01*
Y580500D01*
X819697D01*
X806368Y590497D02*
X813033D01*
X839691Y600494D02*
X826362D01*
Y580500D01*
X839691D01*
X826362Y590497D02*
X833026D01*
X846355Y580500D02*
Y600494D01*
X859684Y580500D01*
Y600494D01*
X800750Y359661D02*
X814079D01*
X820743D02*
X834073D01*
X840737Y369658D02*
Y349664D01*
X850734D01*
X854066Y352997D01*
Y366326D01*
X850734Y369658D01*
X840737D01*
X860731Y362994D02*
Y349664D01*
Y356329D01*
X864063Y359661D01*
X867395Y362994D01*
X870727D01*
X880724Y349664D02*
X887389D01*
X884056D01*
Y362994D01*
X880724D01*
X897385Y349664D02*
X904050D01*
X900718D01*
Y369658D01*
X897385D01*
X914047Y349664D02*
X920711D01*
X917379D01*
Y369658D01*
X914047D01*
X930708Y349664D02*
X937373D01*
X934040D01*
Y362994D01*
X930708D01*
X947369Y349664D02*
Y362994D01*
X957366D01*
X960698Y359661D01*
Y349664D01*
X974027Y343000D02*
X977360D01*
X980692Y346332D01*
Y362994D01*
X970695D01*
X967363Y359661D01*
Y352997D01*
X970695Y349664D01*
X980692D01*
X1020679Y369658D02*
X1007350D01*
Y359661D01*
X1014015D01*
X1007350D01*
Y349664D01*
X1027344D02*
X1034008D01*
X1030676D01*
Y362994D01*
X1027344D01*
X1044005Y349664D02*
X1050669D01*
X1047337D01*
Y369658D01*
X1044005D01*
X1070663Y349664D02*
X1063998D01*
X1060666Y352997D01*
Y359661D01*
X1063998Y362994D01*
X1070663D01*
X1073995Y359661D01*
Y356329D01*
X1060666D01*
X1080660Y349664D02*
X1090657D01*
X1093989Y352997D01*
X1090657Y356329D01*
X1083992D01*
X1080660Y359661D01*
X1083992Y362994D01*
X1093989D01*
X797250Y438161D02*
X810579D01*
X817244D02*
X830573D01*
X850566Y444826D02*
X847234Y448158D01*
X840569D01*
X837237Y444826D01*
Y431497D01*
X840569Y428164D01*
X847234D01*
X850566Y431497D01*
Y438161D01*
X843902D01*
X867227Y428164D02*
X860563D01*
X857231Y431497D01*
Y438161D01*
X860563Y441493D01*
X867227D01*
X870560Y438161D01*
Y434829D01*
X857231D01*
X877224Y441493D02*
Y428164D01*
Y434829D01*
X880556Y438161D01*
X883889Y441493D01*
X887221D01*
X897218Y448158D02*
Y428164D01*
X907215D01*
X910547Y431497D01*
Y434829D01*
Y438161D01*
X907215Y441493D01*
X897218D01*
X927208Y428164D02*
X920544D01*
X917211Y431497D01*
Y438161D01*
X920544Y441493D01*
X927208D01*
X930540Y438161D01*
Y434829D01*
X917211D01*
X937205Y441493D02*
Y428164D01*
Y434829D01*
X940537Y438161D01*
X943869Y441493D01*
X947202D01*
X980524Y428164D02*
Y444826D01*
Y438161D01*
X977192D01*
X983857D01*
X980524D01*
Y444826D01*
X983857Y448158D01*
X993853Y428164D02*
X1000518D01*
X997186D01*
Y441493D01*
X993853D01*
X1010515Y428164D02*
X1017179D01*
X1013847D01*
Y448158D01*
X1010515D01*
X1037173Y428164D02*
X1030508D01*
X1027176Y431497D01*
Y438161D01*
X1030508Y441493D01*
X1037173D01*
X1040505Y438161D01*
Y434829D01*
X1027176D01*
X1070495Y428164D02*
Y444826D01*
Y438161D01*
X1067163D01*
X1073828D01*
X1070495D01*
Y444826D01*
X1073828Y448158D01*
X1087157Y428164D02*
X1093821D01*
X1097153Y431497D01*
Y438161D01*
X1093821Y441493D01*
X1087157D01*
X1083824Y438161D01*
Y431497D01*
X1087157Y428164D01*
X1103818Y441493D02*
Y428164D01*
Y434829D01*
X1107150Y438161D01*
X1110482Y441493D01*
X1113815D01*
X1153802Y428164D02*
X1147137D01*
X1143805Y431497D01*
Y438161D01*
X1147137Y441493D01*
X1153802D01*
X1157134Y438161D01*
Y434829D01*
X1143805D01*
X1167131Y441493D02*
X1173795D01*
X1177128Y438161D01*
Y428164D01*
X1167131D01*
X1163799Y431497D01*
X1167131Y434829D01*
X1177128D01*
X1197121Y441493D02*
X1187124D01*
X1183792Y438161D01*
Y431497D01*
X1187124Y428164D01*
X1197121D01*
X1203786Y448158D02*
Y428164D01*
Y438161D01*
X1207118Y441493D01*
X1213782D01*
X1217115Y438161D01*
Y428164D01*
X1243773D02*
X1250437D01*
X1247105D01*
Y448158D01*
X1243773D01*
X1263766Y441493D02*
X1270431D01*
X1273763Y438161D01*
Y428164D01*
X1263766D01*
X1260434Y431497D01*
X1263766Y434829D01*
X1273763D01*
X1280428Y441493D02*
Y431497D01*
X1283760Y428164D01*
X1293757D01*
Y424832D01*
X1290424Y421500D01*
X1287092D01*
X1293757Y428164D02*
Y441493D01*
X1310418Y428164D02*
X1303753D01*
X1300421Y431497D01*
Y438161D01*
X1303753Y441493D01*
X1310418D01*
X1313750Y438161D01*
Y434829D01*
X1300421D01*
X1320415Y441493D02*
Y428164D01*
Y434829D01*
X1323747Y438161D01*
X1327079Y441493D01*
X1330412D01*
X763250Y529915D02*
Y549908D01*
X769914Y543243D01*
X776579Y549908D01*
Y529915D01*
X786576Y543243D02*
X793240D01*
X796573Y539911D01*
Y529915D01*
X786576D01*
X783243Y533247D01*
X786576Y536579D01*
X796573D01*
X803237Y529915D02*
Y543243D01*
X813234D01*
X816566Y539911D01*
Y529915D01*
X823231Y543243D02*
Y533247D01*
X826563Y529915D01*
X836560D01*
Y543243D01*
X846556Y529915D02*
Y546576D01*
Y539911D01*
X843224D01*
X849889D01*
X846556D01*
Y546576D01*
X849889Y549908D01*
X863218Y543243D02*
X869882D01*
X873214Y539911D01*
Y529915D01*
X863218D01*
X859885Y533247D01*
X863218Y536579D01*
X873214D01*
X893208Y543243D02*
X883211D01*
X879879Y539911D01*
Y533247D01*
X883211Y529915D01*
X893208D01*
X903205Y546576D02*
Y543243D01*
X899873D01*
X906537D01*
X903205D01*
Y533247D01*
X906537Y529915D01*
X916534Y543243D02*
Y533247D01*
X919866Y529915D01*
X929863D01*
Y543243D01*
X936527D02*
Y529915D01*
Y536579D01*
X939860Y539911D01*
X943192Y543243D01*
X946524D01*
X956521Y529915D02*
X963186D01*
X959853D01*
Y543243D01*
X956521D01*
X973182Y529915D02*
Y543243D01*
X983179D01*
X986511Y539911D01*
Y529915D01*
X999840Y523250D02*
X1003173D01*
X1006505Y526582D01*
Y543243D01*
X996508D01*
X993176Y539911D01*
Y533247D01*
X996508Y529915D01*
X1006505D01*
X1046492Y549908D02*
X1033163D01*
Y539911D01*
X1039827D01*
X1033163D01*
Y529915D01*
X1053157D02*
X1059821D01*
X1056489D01*
Y543243D01*
X1053157D01*
X1069818Y529915D02*
X1076482D01*
X1073150D01*
Y549908D01*
X1069818D01*
X1096476Y529915D02*
X1089811D01*
X1086479Y533247D01*
Y539911D01*
X1089811Y543243D01*
X1096476D01*
X1099808Y539911D01*
Y536579D01*
X1086479D01*
X1106473Y529915D02*
X1116469D01*
X1119802Y533247D01*
X1116469Y536579D01*
X1109805D01*
X1106473Y539911D01*
X1109805Y543243D01*
X1119802D01*
M02*
