M48
;Layer_Color=9474304
;FILE_FORMAT=4:4
METRIC,LZ
;TYPE=PLATED
T1F00S00C0.3000
T3F00S00C1.0000
T4F00S00C1.1000
T5F00S00C1.5000
T6F00S00C3.2000
;TYPE=NON_PLATED
T7F00S00C3.2000
%
T01
X0006Y00118
X00047752Y00202946
X0009025Y00215
X00109024Y00205
X00115Y00221
X00106214Y0017725
X00153Y00182
X00212718Y00184532
X00247Y00186
X00231Y00132984
X0023114Y00109474
X00256Y00121
X0020155Y0012705
X00203Y00082
X0021971Y00072136
X00283306Y000575
X0026775Y0003125
X00250853Y00025047
X00335Y00033
X0034925Y00035672
X00357378Y00073406
X00339496Y00088212
X0029Y00152
X00415544Y0010922
X004665Y00100584
X00467Y00055
X004815Y00062
X00508088Y00061912
X0045275Y0003462
X0042525Y00044
X00401Y0004275
X0041Y00033
X0038475Y000365
X00372612Y00048154
X00658876Y00177292
X0065375Y00210721
X00584Y00247
X0061375Y002905
X00554228Y00306022
X0055575Y003335
X00554Y00358
X0058375Y0034975
X0064675Y00355
X00575969Y00420013
X00557784Y00424434
X0038989Y00455422
X00376174Y00449052
X00383286Y00487934
X0039375Y002475
X0041675Y002505
X00462Y00267
X00484378Y00265938
X00252222Y0024003
X0019975Y002525
X00198Y00262382
X00206Y00291
X0017075Y0027825
X001555Y0027875
X00153189Y00247142
X00160132Y00243167
X0009025Y0023375
X00060452Y00223012
X00065Y00289
X00064516Y00328422
X00083652Y00318822
X00103562Y00341562
X00140462Y00329946
X00155Y00329
X00179832Y00327406
X00185623Y00351998
X00201168Y00341884
X00216916Y00338328
X00212598Y00388112
X0022125Y00420894
X00181Y00464497
X00137922Y0040386
X00125222Y00403352
X00123698Y0038354
X0014925Y003517
X0002921Y00296418
X00297017Y00449052
X00325882Y00473052
X00345944Y00477516
T03
X00245122Y00043032
Y00088032
X00310122
Y00043032
X0059825Y002615
Y003065
X0066325
Y002615
T04
X001425Y000985
X001679
X001933
X0029045Y0012573
X0031585
X0034125
X0036665
Y0020193
X0034125
X0031585
X0029045
X00297942Y00018034
X00323342
X00348742
X00374142
X00399542
X00424942
X00450342
X00475742
X00508254Y00018288
X00533654
X00559054
X00584454
X00609854
X00635254
X0062065Y0012573
X0059525
X0056985
X0054445
X0051905
X0049365
X0046825
X0044285
X0041745
X0039205
Y0020193
X0041745
X0044285
X0046825
X0049365
X0051905
X0054445
X0056985
X0059525
X0062065
X0065925Y003397
Y003651
Y003905
X00659384Y00510032
X00633984
X00608584
X00583184
X00557784
X00532384
X00506984
X00481584
X00447802Y00509778
X00422402
X00397002
X00371602
X00346202
X00320802
X00295402
X00270002
X00244602
X00219202
X00155Y004489
Y004235
Y003981
Y003727
X00067818Y0038862
Y0041402
X00042418
X00017018
Y0038862
X00042418
X0004665Y003435
X0002125
Y003181
X0004665
X0004318Y00452374
Y00477774
X0006858
Y00452374
X0001778
Y00477774
T05
X00027Y00022
X00033Y00126
T06
X001597Y000254
X00665Y0007925
X00666Y004545
T07
X001524Y00508
M30
